<svg xmlns="http://www.w3.org/2000/svg" width="323.19" height="300.564" viewBox="0 0 323.19 300.564">
  <g id="Overcome-amico" transform="translate(-10.37 -40.234)">
    <g id="freepik--Water--inject-133" transform="translate(10.37 154.303)">
      <g id="freepik--water--inject-133-2" data-name="freepik--water--inject-133">
        <ellipse id="Ellipse_4533" data-name="Ellipse 4533" cx="161.585" cy="93.238" rx="161.585" ry="93.238" transform="translate(0 0.02)" fill="#f28a29"/>
        <ellipse id="Ellipse_4534" data-name="Ellipse 4534" cx="161.585" cy="93.238" rx="161.585" ry="93.238" transform="translate(0.02 0.02)" fill="#fff" opacity="0.75"/>
        <g id="Group_72313" data-name="Group 72313" transform="translate(1.33 0.002)" opacity="0.3">
          <path id="Path_112841" data-name="Path 112841" d="M419.338,437.577a66.15,66.15,0,0,0-7.356-2.49,12.325,12.325,0,0,0-7.424.223,6.074,6.074,0,0,0-2.956,2.7,11.764,11.764,0,0,0-1.626,4.724,32.912,32.912,0,0,1-.317,4.792,6.96,6.96,0,0,1-.378,1.066c1.836-.85,3.651-1.728,5.433-2.632q.391-1.438.85-2.875a7.56,7.56,0,0,1,1.006-2.241,3.476,3.476,0,0,1,2.119-1.438,3.266,3.266,0,0,1,1.269.162c1.235.331,2.956.587,4.724.911Q417.091,439.069,419.338,437.577Z" transform="translate(-138.134 -282.521)" fill="#fff"/>
          <path id="Path_112842" data-name="Path 112842" d="M32.708,292.778c5.649-1.35,12.04-3.307,14.173-6.459,2.328-3.375-1.438-6.189-3.752-8.963-2.2-2.625-3.071-5.865-1.161-9.037q-3.671,3.03-6.891,6.189A8.773,8.773,0,0,0,36.19,277.3c.675,1.127,1.654,2.065,2.281,3.253a4.515,4.515,0,0,1,.2,4.164c-1.1,2.261-3.975,3.55-6.439,4.049-2.841.594-5.608.614-8.45,1.154-.486.095-.979.216-1.478.351a67.178,67.178,0,0,0-4.151,7.775C21.538,295.465,27.423,294.054,32.708,292.778Z" transform="translate(-14.229 -228.456)" fill="#fff"/>
          <path id="Path_112843" data-name="Path 112843" d="M165.56,476.78q3.867.844,7.8,1.559a23.275,23.275,0,0,0-6.749-1.492C166.269,476.814,165.911,476.8,165.56,476.78Z" transform="translate(-62.152 -296.226)" fill="#fff"/>
          <path id="Path_112844" data-name="Path 112844" d="M324.469,334.384c-1.573.351-3.186.628-4.758.857-4.974.715-9.57-.432-13.964-1.417-4.049-.9-8.018-1.951-12.2-2.578-1.559-.236-3.1-.283-4.414,1.4-1.006,1.289-.8,2.835-2.241,3.982-1.87,1.485-5.818,1.7-7.984.877s-3.064-2.315-4.049-3.692c-4.211-5.764-11.642-10.5-21.286-13.566-1.7-.54-3.55-1.073-4.333-2.065s-.364-2.389.128-3.644l2.463-6.547a2.9,2.9,0,0,1,1.093-1.539,8.97,8.97,0,0,1,4.218-.985c5.534-.216,10.65,1.012,16.258,0,4.508-.79,8.335-2.862,12.243-4.576a80.484,80.484,0,0,1,13.37-4.448c6.074-1.451,12.857-2.247,17.878-.958s7.066,5.278,2.929,8.268c-1.35.972-3.152,1.748-4.346,2.767-2.6,2.18-1.478,4.724.715,6.425,2.585,2.025,6.385,3.476,9.948,4.994a40.779,40.779,0,0,1,5.042,2.5c.385-1.134.722-2.274,1.033-3.422a29.122,29.122,0,0,1-3.725-1.789c-1.35-.769-2.99-1.066-4.306-1.95-1.613-1.073-2.565-2.551-1.917-4.144s2.7-3.037,4.049-4.569c3.057-3.489,2.058-7.424-2.4-9.449-2.247-.992-5.514-1.849-5.014-3.651s4.117-2.97,7.066-4.016a53.33,53.33,0,0,0,5.4-2.281c-.553-1.7-1.181-3.375-1.9-5.075-2.484,2.99-6.958,5.23-10.333,6.493-5.932,2.234-12.958,3.226-18.452,5.818-2.862,1.35-5.973,3.267-9.145,3.024-2.166-.169-3.24-1.35-3.415-2.578s.236-2.517,0-3.712c-.425-1.971-2.7-3.469-5.251-4.677-7.282-3.435-17.412-5.4-21.934-10.124-.8-.85-1.39-1.9-.493-2.922,1.883-2.166,7.626-2.025,11.021-3.678,3.509-1.7,3.044-4.407,2.187-6.5l-2.659-6.317a8.032,8.032,0,0,1-.938-4.684c.331-1.654,1.782-3.469,4.421-4.61,3.779-1.62,8.551-1.35,12.27-.675a28.684,28.684,0,0,1,7.782,2.4c10.427,5.453,3.82,17.439,13.9,23.075a14.943,14.943,0,0,0,8.436,1.721c2.578-.216,5.2-1.053,7.748-1.316-1.1-1.755-2.281-3.5-3.57-5.224a14.888,14.888,0,0,1-5.588-.675c-5.325-2.112-5.453-9-8.1-13.727l-.189-.317q-4.333-3.746-9.347-7.3c-.506-.216-1.012-.412-1.532-.6-4.6-1.667-9.644-2.592-14.4-4.049-.675-.2-1.35-.445-1.552-1.026-.317-.8.263-2.625,1.053-4.36a194.019,194.019,0,0,0-36.478-14.47c-2.477.128-4.974.331-7.458.506a1.93,1.93,0,0,1-1.019-.122c-.506-.31-.364-1.08-.25-1.728.061-.317.108-.634.148-.952-1.539-.385-3.084-.742-4.637-1.1a6.627,6.627,0,0,1-.236,2.106,7.221,7.221,0,0,1-4.522,4.866c-1.35.567-2.943.891-4.225,1.492a6.655,6.655,0,0,0-2.666,2.261c-1.842,2.7-.931,5.595,2.315,7.208,1.721.837,3.989,1.35,5.878,2.072a12.344,12.344,0,0,1,4.232,2.578c1.309,1.3,1.762,3.273-.675,4.562A14.558,14.558,0,0,1,227.856,244c-6.324,1.242-13.849,2.4-17.8.243-2.889-1.579-2.619-4.387-4.319-6.493a12.878,12.878,0,0,0-4.421-3.051c-6.344-3.084-14.666-4.994-23.838-5.494-3.213-.169-6.924-.31-8.308-1.782-.81-.871-.587-2.025-.337-3.1a14.966,14.966,0,0,1,5.723-9.381c1.573-1.114,7.181-3.638,6.169-5.575q-5.23-.148-10.481-.1a7.654,7.654,0,0,1,2.16.722c.459.256.817.587.817.979,0,1.066-2.355,1.856-4.049,2.639a8.22,8.22,0,0,0-3.867,3.206,11.3,11.3,0,0,1-.918,1.829,3.894,3.894,0,0,1-2.5,1.35c-1.559.223-2.544-.486-3.644-.918-4.049-1.653-11.176.135-16.069-.8a20.923,20.923,0,0,1-4.333-1.525c-3.334-1.411-7.066-2.544-10.65-3.786-2.3.385-4.589.81-6.864,1.255a36.843,36.843,0,0,1,10.569,3.914c3.644,1.937,7.39,4.191,13.032,4.218,3.847,0,8.045-1.033,11.8-.817,5.838.344,8.443,4.367,4.839,7.532a33.252,33.252,0,0,1-5.325,3.327c-3.692,2.133-6.749,4.65-8.018,7.289s-.432,5.4,2.794,6.864c1.836.85,6.6,1.35,5.048,2.733-2.463,2.227-8.436.3-12.337-.2a34.137,34.137,0,0,0-9.449-.034c-4.346.675-8.915,1.849-12.992,1.35-2.943-.385-6.8-1.417-7.579-4.272-.628-2.308,1.039-5.008-.074-7.194-1.471-2.882-7.221-3.982-12.506-4.765s-11.116-1.707-13.032-4.461c-1.3-1.863-.472-4.272,1.593-6.364.25-.256.52-.513.8-.756q-4.488,1.552-8.828,3.287a11.284,11.284,0,0,0,.587,5.757c.675,1.586,1.707,3.3.675,5.163a8.277,8.277,0,0,1-3.462,2.868,12.306,12.306,0,0,1-5.237,1.991c-2.092.088-3.55-1.195-5-2.268a27.853,27.853,0,0,0-7.917-3.847c-.675.358-1.289.715-1.923,1.08a133.826,133.826,0,0,0-11.318,7.248,22.008,22.008,0,0,1,10.272-1.842,15.833,15.833,0,0,1,8.261,3.442c1.228.911,2.436,1.9,2.619,3.138.135.952-.364,1.977-.4,2.963-.148,2.511,2.551,4.427,5.446,6.007,2.754,1.505,5.986,3.415,4.171,5.824a20.784,20.784,0,0,1-2.025,1.93c-2.025,1.984-2.025,4.326,0,5.784,2.369,1.694,7.073,2.187,8.6,4.2s-1.444,5.23-5.865,6.243-8.909,0-13.134,1.228c-4.049,1.195-6.337,4.049-10.447,5.055-4,1-7.667-.122-11.379-.567a35.14,35.14,0,0,0-11.122.607c-2.18.459-4.286,1.114-6.479,1.465a13.052,13.052,0,0,1-5.878-.459,10.049,10.049,0,0,1-5.2-3.536,4.467,4.467,0,0,1-.459-.844,57.165,57.165,0,0,0-1.694,6.074c2.578.931,4.92,2.173,5.116,3.989s-1.775,3.739-2.517,5.629c-1.134,2.889.675,5.514,3,7.761s5.109,4.387,6.121,7.012a4.184,4.184,0,0,1-.9,4.562c-1.35,1.505-3.887,2.7-6.142,3.887-.52.277-1.039.56-1.552.864q.84,2.025,1.842,4.049c.931-.675,1.937-1.35,2.97-1.984,3.759-2.3,8.052-4.5,10.441-7.194,2.193-2.47,2.531-5.2.9-7.3-2.5-3.253-9.192-4.853-11.062-8.295s2.106-8.045,8.618-10.238a35.771,35.771,0,0,1,13.012-1.593,37.3,37.3,0,0,1,16.609,4.562c3.442,1.964,6.128,4.785,4.151,7.876-1.815,2.841-7.255,5.311-7.775,8.146-.452,2.389,2.808,4.009,6.074,5.109s7.1,2.133,8.362,4.2c1.066,1.741.121,3.9.675,5.784,1.539,5.534,14.477,6.655,19.025,11.318.594.614.891,1.546-.29,2.119a5.783,5.783,0,0,1-2.025.4c-3.017.243-6.371,1.114-8.207-.506s-1.883-3.644-3.766-5.122c-3.037-2.416-8.558-3.712-14.564-3.422a37.376,37.376,0,0,0-16.92,4.907c-1.35.823-2.531,1.721-3.975,2.5a26.807,26.807,0,0,1-13.208,2.652A94.989,94.989,0,0,0,36.6,352.911c7.066,4.2,17.973,4.11,23.1,10.34,1.842,2.234,2.76,5.089,3.638,7.964a183.291,183.291,0,0,0,22.879,10.124c1.087-.58,1.836-.938,1.836-.938,2.862-1.3,4.535-3.374,4.117-5.075a1.64,1.64,0,0,1-.094-1.06,2.436,2.436,0,0,1,.783-.837,13.515,13.515,0,0,1,9.941-1.9c2.47.628,3.658,2.153,6.108,2.794,2.585.675,6.007.209,9.172-.263a37.608,37.608,0,0,1,6.472-.574c2.092.068,4.049.594,4.657,1.627s-.229,2.369-.324,3.57c-.155,2.214,2.409,3.928,5.71,4.812a55.1,55.1,0,0,0,11.23,1.242A54.918,54.918,0,0,1,157.032,386a14.058,14.058,0,0,1,5.21,2.517c.5.4.925.877.83,1.431a3.064,3.064,0,0,1-.938,1.35l-2.794,2.936c-.371.385-.749.776-1.161,1.161q2.922.142,5.851.236c2.268-1.633,4.441-3.374,5.338-5.23s.209-3.921-2.5-4.724c-1.512-.432-3.455-.439-5.035-.83s-2.774-1.35-1.768-2.382a7.346,7.346,0,0,1,3.26-1.35c9.968-2.335,20.962-1.984,30.006-5.588,5.17-2.065,8.909-5.156,14.105-7.215,6.074-2.423,13.9-3.078,19.363-1.613a18.782,18.782,0,0,1,6.074,2.862c2.605,1.829,4.508,4.144,4.049,6.749s-3.786,5.6-8.538,6.749c-4.009.958-7.984.486-11.878.331a73.565,73.565,0,0,0-11.359.452,30.99,30.99,0,0,0-9.4,2.308c-4.556,2.146-6.074,5.635-5.129,8.348.081.216.169.418.27.628q3.5-.236,6.965-.547a3.8,3.8,0,0,1,.425-2.841c1.222-2.18,4.049-3.233,6.459-3.719,9.057-1.8,17.406.378,26.436-1.073,3.2-.526,6.574-1.485,9.449-.884a9.553,9.553,0,0,1,1.674.56q5.831-1.606,11.473-3.5a16.412,16.412,0,0,1-4.286-1.3,10.123,10.123,0,0,1-5.507-6.142v-1.107c.121-3.746-3.219-7.026-8.74-8.618a33.509,33.509,0,0,1-4.515-1.35c-1.289-.607-2.119-1.606-1.5-2.666a8.4,8.4,0,0,1,1.566-1.573c1.836-1.728,2.376-3.732,1.438-5.318-.614-1.006-1.633-2.247,0-3.186a5.541,5.541,0,0,1,3.685-.4,7.323,7.323,0,0,1,2.511,1.289,14.99,14.99,0,0,0,8.16,2.646c6.324.182,12.58-3.084,17.547-6.027q3.982-2.342,7.93-4.684c2.288-1.35,5.035-2.821,7.984-2.882a28.51,28.51,0,0,1,4.886.675,38.145,38.145,0,0,0,6.385-.034c9.145-.425,17.811.756,24.458,3.314A82.005,82.005,0,0,0,324.469,334.384ZM227.5,230.45c-.29-2.922,4.859-6.142,10.366-7.3a36.445,36.445,0,0,1,15.651.439,46.191,46.191,0,0,1,15.2,6.7c2.882,1.944,5.467,4.144,5.959,6.857a3.064,3.064,0,0,1-.763,2.774,13.728,13.728,0,0,1-3.53,2.315,40.483,40.483,0,0,0-8.774,5.8c-2.254,2.153-3.577,4.6-2.794,6.675.83,2.214,3.847,3.746,5.507,5.716s1.289,5.089-2.7,6.621a21.388,21.388,0,0,1-3.955.925,30.369,30.369,0,0,1-12.229-.52,5.332,5.332,0,0,1-3.24-2.976c-.952-2.261-.189-5.183.5-7.93.634-2.5,1.235-5.244.277-7.35-.8-1.761-2.774-2.632-3.456-4.481-.466-1.255-.256-2.781-.344-4.184-.445-6.2-11.1-4.259-11.676-10.083Zm-21.3,22.231c3.692-2.7,9.725-4.306,15.266-4.724,7.626-.594,15.374,1.06,16.785,4.88,1.228,3.294-2.43,7.228-2.308,10.744.148,4.529,6.412,7.478,12.283,10.029l19.221,8.328c7.275,3.159,15.01,6.823,15.023,12.472a5.244,5.244,0,0,1-1.89,4.049c-2.22,2.025-6.351,3.3-10.279,3.941-7.221,1.181-11.635.209-18.1-.675-1.35-.182-2.943-.364-3.644-.547-.364-.1-1.627-.25-1.627-.25-4.049-.675-5.244-.837-8.18-2.22-1.89-.911-3.5-2.1-3.577-3.617s1.242-3.044,1.35-4.535-1.181-2.9-2.457-4.151A16.04,16.04,0,0,0,227.181,282c-3.341-.985-7.667-.979-11.831-.945s-8.49.054-11.865-.891-5.5-3.219-3.779-5.521c.891-1.188,2.605-2.2,3.948-3.294,3.887-3.159,4.36-7.161,1.168-9.644a10.8,10.8,0,0,1-2.477-2.025c-.675-1.107-.054-2.484.823-3.752a13.167,13.167,0,0,1,3.03-3.246Zm8.888,75.184c.857,1.815,1.674,3.982-.742,5.8a15.839,15.839,0,0,1-4.637,2.025,23.581,23.581,0,0,1-13.539.864c-2.7-.709-6.074-2.767-8.652-3.536-1.809-.56-4.373-1.033-6.256-1.539s-3.375-1.519-2.949-2.794c.493-1.559,3.341-2.781,5.507-4.049,5.554-3.253,7.248-8.1,3.9-11.116a30.98,30.98,0,0,1-3.375-2.733,2.241,2.241,0,0,1,.553-3.516c2.619-1.89,7.363-1.492,11.217-2.335,5.4-1.154,8.645-4.691,13.815-6.3,5.271-1.64,10.927-.844,15.6.169,5.021,1.1,9.908,2.409,13.451,4.535s5.608,5.136,4.4,8.43-6.189,6.749-12.148,7.687c-2.592.425-5.143.391-7.728.6s-5.44.769-7.269,1.977C213.589,323.816,214.2,326.076,215.087,327.865Zm-103.935-32.78a22.947,22.947,0,0,0-8.342-4.893c-3.145-1.127-6.8-1.9-9.651-3.226s-4.907-3.375-3.86-5.723c.9-2.025,4.049-3.928,7.6-5a39.267,39.267,0,0,1,11.048-1.485c7.167-.094,13.842,1.033,18.9,3.206,1.95.837,3.746,1.917,3.867,3.415.088,1.087-.675,2.241-1.255,3.375-1.107,2.322-.9,4.947,2.362,5.959,2.254.675,5.4.459,8.038.79s4.853,1.842,3.152,3.327a18.031,18.031,0,0,1-2.227,1.35c-2.531,1.6-2.295,3.678-2.4,5.534a14.036,14.036,0,0,1-3.6,8.018,4.162,4.162,0,0,1-.6.722c-4.191,3.091-7.377,7.181-13.64,8.558a13.025,13.025,0,0,1-10.4-1.91c-2.632-2.085-3.375-5.008-1.9-7.89,1.35-2.747,4.6-5.433,5.278-8.173.574-2.193-.594-4.218-2.355-5.932Zm36.283-22.947c1.188-3.253,7.579-6.162,13.5-6.567s10.92,1.35,13.194,3.989c1.89,2.18,2.106,4.846,3.186,7.262A15.772,15.772,0,0,0,183,283.294a15.2,15.2,0,0,0,5.15,2.328c4.8,1.107,11.062.1,16.873-.567a62.672,62.672,0,0,1,12.229-.452c3.867.344,7.37,1.35,9.091,3.165,1.2,1.255,2.025,3.341.169,4.792s-5.156,1.633-7.424.925a5.581,5.581,0,0,0-1.35-.074,47.98,47.98,0,0,0-11.014,2.072c-4.279,1.431-7.863,3.53-12.061,5.042s-9.705,2.369-12.776.952c-4.387-2.025-.675-6.749-3.078-9.705-1.687-2.092-6.142-2.889-10.447-3.253a61.283,61.283,0,0,0-10.461-.1c-3.435.29-6.931.958-10.3,1.019a19.282,19.282,0,0,1-8.828-1.694c-1.519-.769-2.632-1.977-1.728-3.273,1.35-1.883,5.838-2.659,8.234-4.3,3.462-2.342,1.134-5.244,2.16-7.984Zm-8.5,43.578q2.875-7.424,5.723-14.807a12.191,12.191,0,0,1,3.476-5.46c2.625-2.227,7.309-3.813,11.642-3.962s8.1,1.168,9.3,3.253c.8,1.35.56,3,.776,4.508a9.212,9.212,0,0,0,3.746,5.98c1.35,1.046,2.983,2.362,1.417,3.692s-4.778,1.35-7.39,1.687a20.638,20.638,0,0,0-11.082,5.17,21.236,21.236,0,0,0-4.724,7.424q-1.228,2.787-2.47,5.581a9.314,9.314,0,0,1-2.227,3.442c-2.335,2.153-7.066,3.55-11.136,3.564s-7.937-1.06-9.334-2.976a4.373,4.373,0,0,1-.331-.8c-.088-1.762,1.235-2.835,3.132-4.549,1.249-1.127,2.868-2.16,4.171-3.28,3.071-2.652,4.225-5.588,5.318-8.423Zm-.965,23.986a40.838,40.838,0,0,1,5.534-1.721c6.007-3.172,10.576-7.161,12.9-11.264,1.269-2.274,1.876-4.569,3.219-6.85a15.179,15.179,0,0,1,7.269-6.162,6.235,6.235,0,0,1,1.728-.513,6.162,6.162,0,0,1,2.187.236c4.09,1.012,8.5,2.261,9.368,4.772.729,2.106-1.289,4.576-4.049,6.607-2.565,1.9-6.02,3.867-6.074,5.953-.034,1.35,1.417,2.355,3.2,3.057,3.962,1.532,9.516,1.687,14.173,2.7s8.51,3.577,6.337,6.56c-2.8,3.847-12.749,5.035-17.109,8.585-1.687,1.35-2.369,2.99-4.2,4.319-3.017,2.254-8.484,3.064-12.533,2.517a18.4,18.4,0,0,1-9.158-3.982c-2.274-1.782-4.151-3.759-7-5.257-2.416-1.269-5.527-2.193-7.316-3.773s-1.687-4.191,1.532-5.737ZM154.3,243.954a4.549,4.549,0,0,1,.209-6.263c2.99-3.375,10.454-5.4,16.65-5.433s11.473,1.424,16.434,2.875c7.35,2.139,15.219,4.724,16.643,9.449a2.193,2.193,0,0,1-.148,1.9,7.964,7.964,0,0,1-2.079,1.849c-4.556,3.253-9.125,6.843-9.779,10.508-.5,2.7,1.235,5.129,3.55,7.194,1.073.979,2.315,2.106,1.39,3.375-.675.925-2.322,1.633-3.287,2.517-2.234,2.025-.675,4.724-4.049,6.3-2.9,1.35-6.749.31-7.613-1.35s.121-3.624.256-5.453c.189-2.916-1.9-5.554-5.662-7.14-2.49-1.046-5.973-2.153-4.913-4.11a9.588,9.588,0,0,1,1.276-1.451c2.193-2.349,1.471-5.075-1.66-6.351a68.1,68.1,0,0,1-10.434-4.049c-2.733-1.154-5.311-2.517-6.776-4.326Zm-70.905,25.37c-.769-.452-1.471-1.006-1.35-1.707.243-1.242,2.862-2.2,4.049-3.375,2.025-2.025-.472-3.928-2.976-5.2-2.335-1.161-4.792-2.308-6.317-3.867-2.315-2.382-2.187-5.642.351-8.585s7.424-5.521,12.877-6.749c5.939-1.35,13.14-.749,14.463,2.227a6.3,6.3,0,0,1,.229,2.7c-.094,4.333,3.1,8.686,10.414,9.6,4.812.607,10.414-.358,15.745-.972a108.282,108.282,0,0,1,28.521.391c4.5.715,9.253,2.308,8.382,5.1-.6,1.91-3.786,3.638-7.14,4.542a52.938,52.938,0,0,1-10.339,1.309c-2.22.85-6.607,2.558-7.883,4.2-1.006,1.316-.54,2.632-.445,3.921a3.725,3.725,0,0,1-2.605,3.779,9.253,9.253,0,0,1-6.074.148,15.678,15.678,0,0,1-3.894-2.288,26.226,26.226,0,0,0-13.5-3.827c-7.262-.256-15.32,1.647-22.515,1.276A22.926,22.926,0,0,1,83.394,269.324Zm-13.552,46.3a10.165,10.165,0,0,1-4.535-3.82c-.9-1.694-.1-3.833,2.058-5.581,2.666-2.173,7.559-4.252,7.005-6.472-.223-.9-1.35-1.532-2.477-2.126q-4.1-2.153-8.2-4.346c-1.627-.871-3.375-1.869-3.132-3.287.175-1.06,1.471-2.139,3.017-2.99,4.664-2.524,12.02-3.2,16.11-1.485,2.639,1.12,3.847,2.99,5.98,4.387,2.531,1.654,6.29,2.605,9.975,3.516s7.424,1.849,10.009,3.489,3.725,4.164,1.775,6.594c-1.411,1.728-4.232,3.233-5.23,5s-.526,3.759-3.327,4.792c-1.856.675-3.921.364-5.919.439-3.766.142-7.424,1.687-11.156,2.612S72.359,316.83,69.842,315.622ZM104.2,366.334c-3.375,1.674-7.356,1.012-11.419,1.579-1.735.25-3.375.074-5.109.162s-3.806.628-4.454,1.559a1.2,1.2,0,0,0,0,1.41c.58.958,1.8,1.694,2.484,2.6a2.011,2.011,0,0,1-.675,3.111c-1.761,1.12-4.724,1.154-6.749.675-6.162-1.35-8.1-5.4-8.888-9.172s-.972-7.95-5.183-10.609c-3.665-2.315-9.712-3.091-14.848-4.441s-9.887-3.833-8.774-7.336c.56-1.762,2.544-3.5,4.866-5.015a34.744,34.744,0,0,1,13-5.116c4.934-.83,10.178-.3,12.6,1.674,1.586,1.309,1.842,3.091,2.578,4.724a6,6,0,0,0,5.271,3.489c3.975.418,8.726-1.586,12.9-1.451,4.38.135,6.418,2.477,7.89,4.6q3.064,4.414,6.135,8.821c.918,1.35,1.869,2.7,1.876,4.245S106.6,365.113,104.2,366.334Zm2.943-17.041c-1.525-5.98-6.8-11.21-14.848-14.713-4.124-1.782-9-3.152-12.047-5.507s-3.725-6.135.486-8.956c4.353-2.929,11.952-3.482,17.237-2.416s9.03,3.327,13.5,5.028a11.858,11.858,0,0,0,4.724.931c4.684-.135,8.065-4.124,12.823-4.765.52-.074,2.025-.148,2.43.547.756,1.255-1.62,4.117-3.489,5.777s-4.569,3.064-6.661,4.664-3.6,3.638-2.423,5.1c1.836,2.288,9,1.937,10.468,4.333,1.35,2.247-3.172,5.082-3.7,7.674-.715,3.476,5.939,5.919,3.415,9.395-1.35,1.883-5.291,3.273-8.774,3.415a15,15,0,0,1-8.416-1.984,8.875,8.875,0,0,1-3.5-3.678,34.016,34.016,0,0,1-1.228-4.866Zm92.671,19.572c-5.46,4.117-14.483,6.614-22.872,7.356-6.533.58-13.734.432-19.208,3.064-1.215.567-2.268,1.262-3.57,1.755a21.515,21.515,0,0,1-8.038.992c-3.989-.088-8.281-.594-9.665-2.5-1.026-1.417-.169-3.212.243-4.9s.135-3.563-2.342-4.211-5.743.169-8.74.641a35.381,35.381,0,0,1-11.419,0c-3.213-.574-6.135-1.964-5.568-4,.486-1.775,3.611-3.422,6.844-4.1a30.473,30.473,0,0,1,9.449-.243l.864-.223c3.705-1.539,6.5-3.833,7.491-6.128a13.935,13.935,0,0,1,1.35-3.273,6.371,6.371,0,0,1,4.576-2.247,4.2,4.2,0,0,1,4.049,2.288c1.579,2.7,3.206,5.494,6.641,7.471s9.131,2.99,14.733,1.681c3.5-.817,6.459-2.4,9.665-3.644a49.268,49.268,0,0,1,16.461-3.206,25.362,25.362,0,0,1,9.05,1.215c6.094,2.254,5.467,8.038.007,12.155Zm67.294-26.409c-1.276,1.95-3.793,3.705-6.432,5.338a23.622,23.622,0,0,1-6.229,2.889,22.5,22.5,0,0,1-8.686.391,21.967,21.967,0,0,1-6.749-1.964c-1.694-.837-3.132-1.93-5.487-2.22-3.914-.52-9.3,1.9-9.449,4.238-.142,2.025,2.916,3.442,2.639,5.487-.236,1.789-2.916,3.489-5.4,4.961a14.891,14.891,0,0,1-6.121,2.376,6.121,6.121,0,0,1-4.954-1.525,11.706,11.706,0,0,1-1.694-3.253c-1.033-2.079-3.179-3.867-6.142-5.129l-.621-.108c-2.787-1.809-8.618-1-13.4-.972-1.006,0-2.16-.088-2.349-.607-.088-.25.094-.533.29-.8,2.531-3.118,10.873-4.616,12.5-7.8.472-.911.277-1.856,1.06-2.733,1.161-1.35,4.049-2.025,6.553-2.254a60.559,60.559,0,0,0,7.424-.675c3.469-.736,6.4-2.7,6.857-4.616.641-2.7-3.28-4.981-1.3-7.7,1.222-1.654,4.373-2.882,7.424-3.5s6.142-.742,9.219-1.12a48.208,48.208,0,0,1,5.919-.607,17.879,17.879,0,0,1,9.341,2.7,61.14,61.14,0,0,1,12.823,9.273c2.916,2.76,5.359,6.223,2.956,9.874Z" transform="translate(-12.34 -209.253)" fill="#fff"/>
        </g>
        <path id="Path_112845" data-name="Path 112845" d="M325.142,272.8c-7.694-13.235-20.659-25.646-38.928-36.215-63.1-36.445-165.412-36.445-228.515,0-40.784,23.534-55.193,56.523-43.261,86.738A74.24,74.24,0,0,0,30,321.533c30.276-7.086,51.441-37.309,82.5-39.88,22.488-1.863,44.8,11.635,66.815,6.844,12.351-2.7,22.616-10.8,34.589-14.74,25.808-8.463,53.736,3.712,81.035,3.935a92.294,92.294,0,0,0,30.2-4.893Z" transform="translate(-10.375 -209.25)" fill="#f28a29" opacity="0.2"/>
        <path id="Path_112846" data-name="Path 112846" d="M57.7,236.586c-32.051,18.519-47.844,42.883-47.3,67.146,14.126-2.126,27.954-5.9,39.239-14.018,10.8-7.775,19.039-19.349,31.815-23.669,12.148-4.1,25.754-.675,38.274-3.536,13.64-3.1,24.256-13.167,37.079-18.553a57.61,57.61,0,0,1,34.778-2.99c12.492,2.855,24.074,9.914,36.924,9.86,9.624-.04,18.735-4.11,28.305-5.062,10.191-1.012,20.362,1.539,30.573,2.349A88.677,88.677,0,0,0,303,247.952a135.054,135.054,0,0,0-16.785-11.359C223.112,200.175,120.811,200.175,57.7,236.586Z" transform="translate(-10.376 -209.259)" fill="#f28a29" opacity="0.2"/>
        <path id="Path_112847" data-name="Path 112847" d="M183.047,221.781c12.931,2.349,24.9,8.74,38,9.968s26.267-2.862,39.488-2.808a70.966,70.966,0,0,1,14.072,1.532c-63.474-30.155-157.482-28.13-216.826,6.115C28.15,253.69,12.432,275.78,10.63,298.18c8.2-3.374,16.488-6.533,22.272-12.823,6.418-6.992,8.666-16.825,15.327-23.622,7.613-7.761,19.511-10.083,30.661-10.8s22.663-.3,33.07-4.157c11.284-4.184,19.977-12.918,30.506-18.614a62.766,62.766,0,0,1,40.582-6.385Z" transform="translate(-10.455 -209.261)" fill="#f28a29" opacity="0.2"/>
      </g>
    </g>
    <g id="freepik--Clouds--inject-133" transform="translate(32.02 40.234)">
      <path id="freepik--Cloud--inject-133" d="M67.522,86.736c0-2.193-2.4-3.719-5.122-3.975-3.206-.3-5.48,1.127-5.561,3.651-2.092-.857-4.306-.3-4.137,2.025-.547-.628-2.585-.607-3.321-.432a2.848,2.848,0,0,0-1.822,1.552,2.106,2.106,0,0,0-.189,1.181c-1.222-.4-4-.675-4.724.472-1.235,2.025,3.705,2.025,4.724,1.458.209,1.552,5.521,1.809,6.8.378a6.024,6.024,0,0,0,4.009,1.35c2.625.155,4.238-.729,6.29-1.782,2.227,1.89,6.074,1.93,8.1-.236a3.931,3.931,0,0,0,3.057.364c.742-.175.911-.493.911-.493a6.884,6.884,0,0,0,1.35.412c1.458.3,4.171,0,3.03-1.35a3.375,3.375,0,0,0-2.4-.594c-.675-1.249-3.192-2.436-4.657-1.35-.054-1.519-1.438-2.7-3.375-3A4.009,4.009,0,0,0,67.522,86.736Z" transform="translate(-42.448 -54.047)" fill="#f0f0f0"/>
      <path id="freepik--cloud--inject-133-2" data-name="freepik--cloud--inject-133" d="M437.162,98.466c0-2.193-2.4-3.719-5.122-3.975-3.206-.3-5.48,1.127-5.554,3.651-2.1-.857-4.306-.31-4.137,2.025-.547-.628-2.592-.614-3.321-.439a2.888,2.888,0,0,0-1.829,1.559,2.167,2.167,0,0,0-.189,1.181c-1.222-.4-4-.675-4.724.472-1.235,2.025,3.705,2.058,4.724,1.458.209,1.552,5.527,1.8,6.81.371a5.989,5.989,0,0,0,4.009,1.35c2.625.155,4.238-.736,6.283-1.782,2.234,1.89,6.074,1.923,8.1-.236a3.918,3.918,0,0,0,3.051.364c.742-.182.918-.493.918-.493a6.46,6.46,0,0,0,1.35.4c1.458.31,4.164,0,3.03-1.35a3.422,3.422,0,0,0-2.409-.587c-.634-1.255-3.186-2.436-4.65-1.35-.054-1.512-1.438-2.7-3.375-3A4.023,4.023,0,0,0,437.162,98.466Z" transform="translate(-162.618 -57.86)" fill="#f0f0f0"/>
      <path id="freepik--cloud--inject-133-3" data-name="freepik--cloud--inject-133" d="M132.261,49.525a5.157,5.157,0,0,0-1.687-.31c-.547-.04-.722-.148-.823-.27a4.049,4.049,0,0,0-4.812-1.444,3.1,3.1,0,0,0-3.644-2.065c.061-1.694-2.112-3.523-4.049-3.935s-3.5-.229-4.569,1c-1.141-2.227-5.615-2.862-8.038-1.681a5.787,5.787,0,0,0-3.145,2.652,5.278,5.278,0,0,0-.526,2.538,4.481,4.481,0,0,0-4.1-.574c-1.35.526-1.458,1.552-1.525,2.592a4.8,4.8,0,0,0-2.477-.04c-.857.25-1.35.925-1.228,1.465-.675,0-2.295.513-2.106,1.228s2.025.722,2.74.675a12.877,12.877,0,0,0,1.923-.3,2.983,2.983,0,0,0,1,.2,1.811,1.811,0,0,0,1.863-.952c.574,1.208,2.612,2.126,4.049,2.49,2.7.675,6.553.277,8.227-1.755a3.01,3.01,0,0,0,.756,1.012,4.724,4.724,0,0,0,2.511,1.019c1.114.1,4.1.243,4.947-1.525.6,1.174,3.26,1.714,5.284,1.424a8.254,8.254,0,0,0,2.268-.675,14.172,14.172,0,0,0,1.3-.783,1.093,1.093,0,0,1,1.114-.074,6.607,6.607,0,0,0,4.414,0C133.084,50.942,133.32,50,132.261,49.525Z" transform="translate(-57.75 -40.234)" fill="#f0f0f0"/>
    </g>
    <g id="freepik--Floor--inject-133" transform="translate(22.903 104.847)">
      <g id="freepik--Rock--inject-133">
        <path id="freepik--Shadow--inject-133" d="M157.779,310.973l-.628-1.336-11.966-11.062-.931-2.916,16.265-2.376-9.4-10.542L118.25,271.376l-.02-.02h-.007L84.889,258.04,28.94,295.6l9.759,6.891,33.36,7.4,24.593,8.726,16.312.823,20.719,2.254,1.019.351,14.288,1.546,13.424-2.625Z" transform="translate(-28.94 -175.655)" fill="#f28a29" opacity="0.45"/>
        <g id="freepik--rock--inject-133-2" data-name="freepik--rock--inject-133">
          <path id="Path_112848" data-name="Path 112848" d="M102.245,289.4,40.66,268.471V188.65l89.667,25.842-8.713,21.28-5.588,5.177,2.571,4.9-4.826,10.1,1.768,7.822Z" transform="translate(-32.75 -153.096)" fill="#3e3e3e"/>
          <g id="Group_72314" data-name="Group 72314" transform="translate(7.923 51.198)" opacity="0.05">
            <path id="Path_112849" data-name="Path 112849" d="M111.767,290.624c-6.891-2.288-20.483-16.812-36.094-27.873C63.984,254.463,50.7,248.645,40.7,248.49v16.5c12.04-2.409,23.318-.486,34.555,6.128s18.222,17.824,34.13,24.054Z" transform="translate(-40.687 -223.748)" fill="#fff"/>
            <path id="Path_112850" data-name="Path 112850" d="M78.69,231.4C64.4,221.279,54.961,211.911,40.68,211.83v11.359l1.546.115c9.705.81,17.952,4.367,32.969,14.321,13.363,8.861,26.422,16.778,41.27,20.247l1.667-3.489C104.175,249.51,94.787,242.781,78.69,231.4Z" transform="translate(-40.68 -211.83)" fill="#fff"/>
          </g>
          <path id="Path_112851" data-name="Path 112851" d="M131.91,316.109l13.3-25.626,38-19.673-10.231,21.6Z" transform="translate(-62.415 -179.806)" fill="#37474f"/>
          <path id="Path_112852" data-name="Path 112852" d="M188.755,267.741l-2.706-6.371-6.924,3.071L148.99,279.592l1.768,7.822Z" transform="translate(-67.968 -176.737)" fill="#455a64"/>
          <path id="Path_112853" data-name="Path 112853" d="M153.816,266.4l-2.571-4.9,21.347-7.39,23.379-2.241-9.921,6.412-6.924,3.071L148.99,276.5Z" transform="translate(-67.968 -173.649)" fill="#37474f"/>
          <path id="Path_112854" data-name="Path 112854" d="M173.677,246.006l23.379-2.241,17.709-10.913-13.417,2.632-14.294-1.546-20.423-7-8.713,21.28L152.33,253.4Z" transform="translate(-69.054 -165.544)" fill="#455a64"/>
          <path id="Path_112855" data-name="Path 112855" d="M157.1,283.687l5.406,2.571v-4.353l-3.557-2.106Z" transform="translate(-70.605 -182.729)" fill="#3e3e3e"/>
          <path id="Path_112856" data-name="Path 112856" d="M167.479,280.87l-2.369,1.384v4.353l3.557-1.714Z" transform="translate(-73.209 -183.077)" fill="#37474f"/>
          <path id="Path_112857" data-name="Path 112857" d="M159.84,279.641l3.226-.331,2.7,1.053-2.369,1.384Z" transform="translate(-71.495 -182.57)" fill="#455a64"/>
          <path id="Path_112858" data-name="Path 112858" d="M139.49,327.1l2.166,1.4,3.577-.7-2.4-1.114h-1.64Z" transform="translate(-64.88 -197.973)" fill="#455a64"/>
          <path id="Path_112859" data-name="Path 112859" d="M141.84,333.726l.58-4.684,3.577-.7.931,2.342Z" transform="translate(-65.644 -198.509)" fill="#37474f"/>
          <path id="Path_112860" data-name="Path 112860" d="M138.615,327.3l-1.815,5.271,3.4.817.58-4.684Z" transform="translate(-64.005 -198.171)" fill="#3e3e3e"/>
          <g id="freepik--rock--inject-133-3" data-name="freepik--rock--inject-133" transform="translate(105.723 104.218)">
            <path id="Path_112861" data-name="Path 112861" d="M185.59,301.56l7.4,2.814,11.98-2-1.687-4.576-4.245-3-2.922-.81-3.125-3.6-3.118.317Z" transform="translate(-185.59 -290.39)" fill="#3e3e3e"/>
            <path id="Path_112862" data-name="Path 112862" d="M196.078,294.07l-.128,6.331,4.927-.736,1.525-3.671-2.922-.81Z" transform="translate(-188.958 -291.586)" fill="#37474f"/>
            <path id="Path_112863" data-name="Path 112863" d="M199.752,296.92l-1.525,3.671-4.927.736-5.5-1.438,6.729,3.456,7.782-1.309L204,299.917Z" transform="translate(-186.308 -292.513)" fill="#455a64"/>
            <path id="Path_112864" data-name="Path 112864" d="M196.55,307.94l.823-3.152,7.782-1.309,1.687-2.119,1.687,4.576Z" transform="translate(-189.153 -293.956)" fill="#37474f"/>
            <path id="Path_112865" data-name="Path 112865" d="M195.048,290.39l-3.118.317,2.841,2.166,3.4,1.114Z" transform="translate(-187.651 -290.39)" fill="#455a64"/>
          </g>
          <g id="freepik--rock--inject-133-4" data-name="freepik--rock--inject-133" transform="translate(0 108.929)">
            <path id="Path_112866" data-name="Path 112866" d="M28.94,308.384l7.4,2.814,11.973-2-1.681-4.576-4.245-3-2.558-2.281L36.85,297.37l-3.766,1.721Z" transform="translate(-28.94 -297.37)" fill="#3e3e3e"/>
            <path id="Path_112867" data-name="Path 112867" d="M39.08,301.4l.148,5.581,4.934-.736,1.525-3.671-2.558-2.281Z" transform="translate(-32.236 -298.319)" fill="#37474f"/>
            <path id="Path_112868" data-name="Path 112868" d="M43.113,303.67l-1.525,3.671-4.934.736L31.16,306.64l6.729,3.455,7.782-1.309,1.687-2.119Z" transform="translate(-29.662 -299.418)" fill="#455a64"/>
            <path id="Path_112869" data-name="Path 112869" d="M39.91,314.69l.823-3.152,7.782-1.309L50.2,308.11l1.681,4.576Z" transform="translate(-32.506 -300.862)" fill="#37474f"/>
            <path id="Path_112870" data-name="Path 112870" d="M38.846,297.37l-3.766,1.721,2.7,1.357,4.049-1.107Z" transform="translate(-30.936 -297.37)" fill="#455a64"/>
          </g>
          <path id="Path_112871" data-name="Path 112871" d="M132.492,230.014a1.458,1.458,0,0,1-.061,1.154,1.255,1.255,0,0,1-.526.445,2.7,2.7,0,0,1-1.188.256,1.519,1.519,0,0,1-.756-.148,1.627,1.627,0,0,1-.675-.992,7.877,7.877,0,0,0-.385-1.188,3.923,3.923,0,0,1-.209-.412,1.249,1.249,0,0,1,.236-1.262C130.225,226.356,132.128,228.779,132.492,230.014Z" transform="translate(-61.344 -165.689)" fill="#455a64"/>
          <path id="Path_112872" data-name="Path 112872" d="M127.46,231.4a1.161,1.161,0,0,1-.236,1.842.439.439,0,0,1-.351.054.418.418,0,0,1-.182-.175,1.957,1.957,0,0,1-.337-1.35.884.884,0,0,1,.418-.722c.263-.121.675.067.621.358" transform="translate(-60.604 -166.869)" fill="#455a64"/>
          <path id="Path_112873" data-name="Path 112873" d="M57.311,294.3a1.127,1.127,0,0,0,.378.972,2.7,2.7,0,0,0,.931.54,5.4,5.4,0,0,0,3.375.331,2.949,2.949,0,0,0,2.207-2.4,4.306,4.306,0,0,0-.344-1.829c-.4-1.107-1.35-2.7-2.747-2.619-1.809.135-1.168,2.025-1.694,3.051C58.971,293.236,57.452,293.324,57.311,294.3Zm-.925-2.328a1.68,1.68,0,0,0,1.869-.27,1.039,1.039,0,0,0,.364-.634,4.529,4.529,0,0,0-.148-1.127,1.593,1.593,0,0,0-.223-.675c-.675-.918-2.025.533-2.274,1.168a1.35,1.35,0,0,0,.4,1.539Z" transform="translate(-37.698 -185.71)" fill="#37474f"/>
          <path id="Path_112874" data-name="Path 112874" d="M100.6,304.206a4.11,4.11,0,0,0,1.654.58c1.006.243,2.025.439,3.064.587.162,0,.358,0,.445-.108a.459.459,0,0,0,.047-.25,9.631,9.631,0,0,0-.817-3.53,1.3,1.3,0,0,0-.364-.54,1.35,1.35,0,0,0-.479-.2,3.308,3.308,0,0,0-2.646.034,3.048,3.048,0,0,0-1.235,2.963,1.127,1.127,0,0,0,.331.466Zm3.928,2.524a1.019,1.019,0,0,0,.358.8.884.884,0,0,0,.3.189,1.274,1.274,0,0,0,.506,0,1.35,1.35,0,0,0,.81-.243,1.2,1.2,0,0,0,.2-1.114.425.425,0,0,0-.108-.256.365.365,0,0,0-.182-.074,2.843,2.843,0,0,0-.675.081c-.513.115-1.168-.169-1.215.634Zm2.025-3.374a.412.412,0,0,0,.344.162.419.419,0,0,0,.223-.1,1.2,1.2,0,0,0,.358-1.465,1.608,1.608,0,0,0-.229-.331,1.7,1.7,0,0,0-.547-.459c-.337-.148-.79-.108-.8.337a2.436,2.436,0,0,0,.25.965c.067.182.142.364.216.54a1.1,1.1,0,0,0,.169.4Z" transform="translate(-52.103 -189.452)" fill="#455a64"/>
          <path id="Path_112875" data-name="Path 112875" d="M75.14,212.091a5.4,5.4,0,0,1,.466,1.046c.155.493.2,1.134-.223,1.438a1.485,1.485,0,0,1-.675.2,1.728,1.728,0,0,1-1.35-.236,1.35,1.35,0,0,1-.371-.675,2.106,2.106,0,0,1,.088-1.451C73.365,211.72,74.708,211.335,75.14,212.091Z" transform="translate(-43.231 -160.582)" fill="#37474f"/>
          <path id="Path_112876" data-name="Path 112876" d="M70.712,211.684a.675.675,0,0,1,.256.776,1.289,1.289,0,0,1-.587.675,2.747,2.747,0,0,1-.911.364A1.262,1.262,0,0,1,70.6,211.65" transform="translate(-42.069 -160.573)" fill="#37474f"/>
          <path id="Path_112877" data-name="Path 112877" d="M173.825,193.289l-.628-1.343-11.966-11.055-5.1-14.5L135.605,149.3l-.013-.02h-.007l-33.34-13.309L40.66,171.524l15.395,8.888,33.36,7.41,24.6,8.726,16.312.817,19.41,6.648,1.012.351,14.294,1.546,13.417-2.632Z" transform="translate(-32.75 -135.97)" fill="#f28a29"/>
          <path id="Path_112878" data-name="Path 112878" d="M148.1,225.73l-2.585,18.8,4.6,8.47,5.588-5.177,8.713-21.28Z" transform="translate(-66.84 -165.151)" fill="#37474f"/>
        </g>
        <g id="freepik--Plants--inject-133" transform="translate(5.855 10.978)">
          <g id="freepik--plants--inject-133-2" data-name="freepik--plants--inject-133">
            <path id="Path_112879" data-name="Path 112879" d="M48,160.263a4.353,4.353,0,0,1-.175-4.65c1.066-2.025,3.03-3.442,3.3-3.374s.952,2.369,0,4.853A5.089,5.089,0,0,1,48,160.263Z" transform="translate(-40.744 -152.237)" fill="#f28a29"/>
            <path id="Path_112880" data-name="Path 112880" d="M49.983,169.533a4.367,4.367,0,0,1,1.964-4.218,8.033,8.033,0,0,1,4.488-1.512c.223.162-.236,2.544-2.22,4.313A5.1,5.1,0,0,1,49.983,169.533Z" transform="translate(-41.625 -155.985)" fill="#f28a29"/>
            <path id="Path_112881" data-name="Path 112881" d="M42.35,174.726a4.36,4.36,0,0,1-3.8-2.659C37.6,170,37.5,167.781,37.7,167.6s2.7.722,4.13,2.652A4.6,4.6,0,0,1,42.35,174.726Z" transform="translate(-37.616 -157.223)" fill="#f28a29"/>
            <path id="Path_112882" data-name="Path 112882" d="M47.1,171.453c0,1.91.142,5.7.351,7.37-.283.061-.574.121-.884.175h-.088a62.665,62.665,0,0,1,.277-13.2,23.945,23.945,0,0,1,2.025-7.356c0-.047.155,0,.135.04a35.425,35.425,0,0,0-1.35,6.79,41.646,41.646,0,0,0-.466,6.182Z" transform="translate(-40.425 -154.247)" fill="#37474f"/>
            <path id="Path_112883" data-name="Path 112883" d="M44.645,178.034a13.336,13.336,0,0,1-2.025-2.227,7.5,7.5,0,0,1-1.35-2.544c0-.135.128,0,.169.061a23.28,23.28,0,0,0,1.5,2.106,9.9,9.9,0,0,0,2.025,1.856.607.607,0,0,1,.229.675.324.324,0,0,1-.547.074Z" transform="translate(-38.804 -159.053)" fill="#37474f"/>
            <path id="Path_112884" data-name="Path 112884" d="M46.4,174.346a11.278,11.278,0,0,1,2.173-3.692,12.821,12.821,0,0,1,1.35-1.444,7.532,7.532,0,0,1,1.9-1.35H52a19.57,19.57,0,0,0-1.674,1.546,12.147,12.147,0,0,0-1.35,1.586,18.781,18.781,0,0,0-2.058,3.59C46.8,174.872,46.322,174.582,46.4,174.346Z" transform="translate(-40.468 -157.316)" fill="#37474f"/>
          </g>
        </g>
      </g>
      <g id="freepik--rock--inject-133-5" data-name="freepik--rock--inject-133" transform="translate(155.167 84.942)">
        <path id="freepik--shadow--inject-133-2" data-name="freepik--shadow--inject-133" d="M402.287,386.44l-66.1,38.233-20.254-11.7-13.707,4.751-19.194-14.247,9.381-2.349-22.4-11.116L258.85,379.07l18.2-8.2,16.049,3.719,21.779-3.678,24.418,6.641,12.344-1.424,32.827-.945Z" transform="translate(-258.85 -297.277)" fill="#f28a29" opacity="0.45"/>
        <g id="freepik--rock--inject-133-6" data-name="freepik--rock--inject-133" transform="translate(0.823 1.257)">
          <path id="Path_112885" data-name="Path 112885" d="M336.347,363.921l-.965,25.97-53.891-31.113-4.481-2.693-.877-22.1-.088-2.166L269.4,317.805V317.8l-3.617-7.64-.29-3.55-.769-9.536-.1-1.269-4.556-13.336V275.84l66.741,38.537v5.507L314.9,318.507l9.536,5.507,1.046,12.715.229,2.814,1.1,13.363.641.742Z" transform="translate(-260.07 -267.64)" fill="#3e3e3e"/>
          <g id="Group_72315" data-name="Group 72315" transform="translate(4.677 29.432)" opacity="0.05">
            <path id="Path_112886" data-name="Path 112886" d="M340.843,384.129v4.488a35.869,35.869,0,0,1-10.022-.054,59.344,59.344,0,0,1-31.754-14.625c-5.98-5.4-10.8-11.932-16.366-17.723-.675-.675-1.35-1.39-2.072-2.025l-.088-2.166L273.9,338a40.383,40.383,0,0,1,6.317,3.908c6.182,4.589,11.534,10.184,17.136,15.455s11.608,10.306,18.627,13.5a32.908,32.908,0,0,0,15.968,3.017Z" transform="translate(-269.243 -317.281)" fill="#fff"/>
            <path id="Path_112887" data-name="Path 112887" d="M327.964,349.772c-5.224-.175-10.387-1.944-15.233-4.049a81.374,81.374,0,0,1-13.026-6.9c-6.614-4.427-12.331-10.043-18.735-14.753a49.052,49.052,0,0,0-13.221-7.208L267,307.3l.675.3c6.533,2.909,12.283,7.383,17.682,12.007,6.749,5.764,13.174,11.993,20.72,16.657,6.418,3.962,13.869,6.749,21.334,6.6l.344,4.09Z" transform="translate(-267 -307.3)" fill="#fff"/>
          </g>
          <path id="Path_112888" data-name="Path 112888" d="M371.67,417.093l.958-25.97L428.49,359.51l4.765,22.022Z" transform="translate(-296.351 -294.841)" fill="#37474f"/>
          <path id="Path_112889" data-name="Path 112889" d="M424.358,354.039,418.27,342.68l-59.31,31.963,9.536,11.008Z" transform="translate(-292.219 -289.369)" fill="#455a64"/>
          <path id="Path_112890" data-name="Path 112890" d="M357.812,363.372l-2.382-28.906,47.392-19.572,11.919-6.884,2.382,23.4Z" transform="translate(-291.071 -278.098)" fill="#37474f"/>
          <path id="Path_112891" data-name="Path 112891" d="M406.155,298.55l4,6.385-11.919,6.884L350.84,331.391l-9.53-5.5,11.912,1.377,52.933-23.21Z" transform="translate(-286.481 -275.023)" fill="#455a64"/>
          <path id="Path_112892" data-name="Path 112892" d="M411.893,303.394l2.382-6.884L358.96,321.1V326.6Z" transform="translate(-292.219 -274.36)" fill="#37474f"/>
          <path id="Path_112893" data-name="Path 112893" d="M363.99,386.005l4.8,2.281v-3.867l-3.159-1.869Z" transform="translate(-293.854 -302.331)" fill="#3e3e3e"/>
          <path id="Path_112894" data-name="Path 112894" d="M373.206,383.5l-2.106,1.228V388.6l3.165-1.525Z" transform="translate(-296.166 -302.64)" fill="#37474f"/>
          <path id="Path_112895" data-name="Path 112895" d="M366.42,382.407l2.868-.3,2.4.938-2.106,1.228Z" transform="translate(-294.644 -302.188)" fill="#455a64"/>
          <path id="Path_112896" data-name="Path 112896" d="M426.62,401.115l3.428,2.22,5.656-1.114-3.8-1.762h-2.6Z" transform="translate(-314.215 -308.154)" fill="#455a64"/>
          <path id="Path_112897" data-name="Path 112897" d="M430.33,411.6l.925-7.417,5.656-1.114,1.485,3.712Z" transform="translate(-315.421 -309.002)" fill="#37474f"/>
          <path id="Path_112898" data-name="Path 112898" d="M425.235,401.43l-2.875,8.342,5.379,1.3.925-7.417Z" transform="translate(-312.83 -308.469)" fill="#3e3e3e"/>
          <path id="Path_112899" data-name="Path 112899" d="M332.23,421.235l-.972-8.025-8.288,7.532,1.134,7.606Z" transform="translate(-280.519 -312.299)" fill="#37474f"/>
          <path id="Path_112900" data-name="Path 112900" d="M317.517,426.5,302.71,415.8l4.765-8.261,8.909,11.359Z" transform="translate(-273.932 -310.455)" fill="#3e3e3e"/>
          <path id="Path_112901" data-name="Path 112901" d="M326.966,409.38l-10.043-7.95-7.154,4.124,8.909,11.359Z" transform="translate(-276.227 -308.469)" fill="#455a64"/>
          <path id="Path_112902" data-name="Path 112902" d="M332.15,427.074l2.976.3V423.51l-2.261-.58Z" transform="translate(-283.503 -315.459)" fill="#3e3e3e"/>
          <path id="Path_112903" data-name="Path 112903" d="M338.666,421.97,336.56,423.2v3.867l3.165-1.525Z" transform="translate(-284.937 -315.147)" fill="#37474f"/>
          <path id="Path_112904" data-name="Path 112904" d="M333.21,422.166l1.971-1.586,2.4.938-2.106,1.228Z" transform="translate(-283.848 -314.695)" fill="#455a64"/>
          <path id="Path_112905" data-name="Path 112905" d="M331.649,327.966a1.444,1.444,0,0,1-.054,1.161,1.283,1.283,0,0,1-.526.439,2.6,2.6,0,0,1-1.195.263,1.586,1.586,0,0,1-.749-.148,1.627,1.627,0,0,1-.709-.992,7.16,7.16,0,0,0-.378-1.188c-.068-.142-.155-.27-.216-.412a1.249,1.249,0,0,1,.243-1.269C329.409,324.314,331.292,326.731,331.649,327.966Z" transform="translate(-282.071 -283.733)" fill="#455a64"/>
          <path id="Path_112906" data-name="Path 112906" d="M326.654,329.365a1.181,1.181,0,0,1,.351.979,1.168,1.168,0,0,1-.587.857.411.411,0,0,1-.351.054.439.439,0,0,1-.182-.169,2.024,2.024,0,0,1-.331-1.35.871.871,0,0,1,.418-.715c.263-.128.675.068.614.358" transform="translate(-281.355 -284.916)" fill="#455a64"/>
          <path id="Path_112907" data-name="Path 112907" d="M360.69,423.581a2.288,2.288,0,0,1,.385.952,4.912,4.912,0,0,0,.479,1.154,1.391,1.391,0,0,1,.311,1.012c-.1.344-.466.52-.79.675a4.049,4.049,0,0,1-.925.27,2.315,2.315,0,0,1-2.484-1.762C357.383,424.466,359.354,422.09,360.69,423.581Z" transform="translate(-291.79 -315.516)" fill="#455a64"/>
          <path id="Path_112908" data-name="Path 112908" d="M364.972,425.973c-.041-.27-.25-1.7.486-1.35a.763.763,0,0,1,.283.283l.675.952a.635.635,0,0,1,.135.317.614.614,0,0,1-.209.412.945.945,0,0,1-.493.371.634.634,0,0,1-.614-.29,1.525,1.525,0,0,1-.263-.7Z" transform="translate(-294.154 -315.991)" fill="#455a64"/>
          <path id="Path_112909" data-name="Path 112909" d="M364.482,429.473a.419.419,0,0,1,.223,0,.675.675,0,0,1,.337.257c.108.128.216.29.155.445a.425.425,0,0,1-.128.162l-.331.311a1.734,1.734,0,0,1-.25.2.675.675,0,0,1-.58.047C363.017,430.5,364.016,429.648,364.482,429.473Z" transform="translate(-293.711 -317.581)" fill="#455a64"/>
          <path id="Path_112910" data-name="Path 112910" d="M342.437,379.244a4.947,4.947,0,0,0,.952,2.1.945.945,0,0,0,.493.425.675.675,0,0,0,.634-.2,2.955,2.955,0,0,0,.4-.56,4.535,4.535,0,0,1,2.025-1.68,2.66,2.66,0,0,0,.742-.378.675.675,0,0,0,.216-.749.938.938,0,0,0-.358-.331,20.615,20.615,0,0,0-2.119-1.141C343.854,376.012,342.214,377.658,342.437,379.244Zm3.482,1.991a1.35,1.35,0,0,0-.29,1.39.675.675,0,0,0,1.019.344c.148-.128.216-.324.358-.466s.162-.121.236-.2a.864.864,0,0,0,.175-.52,1.127,1.127,0,0,0-.3-.9.628.628,0,0,0-.823,0,2.247,2.247,0,0,0-.378.358Zm-4.88.817a.912.912,0,0,0,.182.439.864.864,0,0,0,.742.263,1.816,1.816,0,0,0,.749-.3c.1-.068.216-.148.229-.277a.425.425,0,0,0-.088-.263c-.317-.533-1.033-1.579-1.647-.729A1.188,1.188,0,0,0,341.04,382.052Z" transform="translate(-286.386 -300.382)" fill="#37474f"/>
          <path id="Path_112911" data-name="Path 112911" d="M289.355,388.36a4.049,4.049,0,0,0,1.654.567c1.012.243,2.025.439,3.071.587.162,0,.358,0,.445-.108a.452.452,0,0,0,.047-.25,9.63,9.63,0,0,0-.817-3.53,1.3,1.3,0,0,0-.365-.54,1.514,1.514,0,0,0-.479-.2,3.335,3.335,0,0,0-2.646.034,3.048,3.048,0,0,0-1.235,2.963A1.127,1.127,0,0,0,289.355,388.36Zm3.928,2.524a1.019,1.019,0,0,0,.351.8.986.986,0,0,0,.311.189,1.276,1.276,0,0,0,.506,0,1.31,1.31,0,0,0,.81-.243,1.2,1.2,0,0,0,.2-1.114.425.425,0,0,0-.108-.256.384.384,0,0,0-.182-.074,2.537,2.537,0,0,0-.675.088C293.985,390.371,293.33,390.088,293.283,390.884Zm2.025-3.375a.425.425,0,0,0,.351.162.465.465,0,0,0,.223-.095,1.2,1.2,0,0,0,.358-1.471,2.078,2.078,0,0,0-.229-.331,1.6,1.6,0,0,0-.547-.452c-.344-.155-.79-.115-.8.331a2.544,2.544,0,0,0,.243.965l.223.54a1.237,1.237,0,0,0,.155.378Z" transform="translate(-269.459 -303.005)" fill="#455a64"/>
          <path id="Path_112912" data-name="Path 112912" d="M282.345,304.64a5.352,5.352,0,0,1,.459,1.046c.155.5.2,1.134-.223,1.438a1.349,1.349,0,0,1-.675.2,1.721,1.721,0,0,1-1.35-.229,1.411,1.411,0,0,1-.371-.715,2.1,2.1,0,0,1,.081-1.451C280.563,304.269,281.913,303.884,282.345,304.64Z" transform="translate(-266.579 -276.868)" fill="#37474f"/>
          <path id="Path_112913" data-name="Path 112913" d="M277.915,304.237a.675.675,0,0,1,.263.783,1.35,1.35,0,0,1-.587.675,2.856,2.856,0,0,1-.918.371,1.276,1.276,0,0,1,1.134-1.856" transform="translate(-265.422 -276.863)" fill="#37474f"/>
          <path id="Path_112914" data-name="Path 112914" d="M382.126,285.84l-55.315,24.587-55.578-27.59L260.07,271.89l18.2-8.2,16.049,3.725L316.1,263.73l24.418,6.648,12.344-1.431Z" transform="translate(-260.07 -263.69)" fill="#f28a29"/>
        </g>
        <g id="freepik--plants--inject-133-3" data-name="freepik--plants--inject-133" transform="translate(107.668)">
          <g id="freepik--plants--inject-133-4" data-name="freepik--plants--inject-133">
            <path id="Path_112915" data-name="Path 112915" d="M427.369,269.368a4.083,4.083,0,0,0,.162-4.36,7.494,7.494,0,0,0-3.091-3.179c-.25.047-.891,2.22,0,4.549A4.785,4.785,0,0,0,427.369,269.368Z" transform="translate(-420.202 -261.828)" fill="#f28a29"/>
            <path id="Path_112916" data-name="Path 112916" d="M424.475,278.087a4.1,4.1,0,0,0-1.842-3.955,7.616,7.616,0,0,0-4.2-1.417c-.2.148.223,2.389,2.079,4.049A4.765,4.765,0,0,0,424.475,278.087Z" transform="translate(-418.382 -265.357)" fill="#f28a29"/>
            <path id="Path_112917" data-name="Path 112917" d="M432.309,282.964a4.083,4.083,0,0,0,3.577-2.5,7.5,7.5,0,0,0,.8-4.191c-.189-.175-2.558.675-3.867,2.5A4.3,4.3,0,0,0,432.309,282.964Z" transform="translate(-422.801 -266.516)" fill="#f28a29"/>
            <path id="Path_112918" data-name="Path 112918" d="M428.934,279.886c0,1.8-.128,5.338-.331,6.9.277.067.547.121.83.169h.088a58.5,58.5,0,0,0-.256-12.391,22.587,22.587,0,0,0-1.93-6.9c0-.047-.149,0-.135.034a33.071,33.071,0,0,1,1.3,6.371A38.467,38.467,0,0,1,428.934,279.886Z" transform="translate(-421.248 -263.721)" fill="#37474f"/>
            <path id="Path_112919" data-name="Path 112919" d="M430.695,286.06a12.5,12.5,0,0,0,1.917-2.085,7.013,7.013,0,0,0,1.262-2.389c.034-.122-.122,0-.162.061a21.375,21.375,0,0,1-1.4,1.977,9.226,9.226,0,0,1-1.89,1.735.574.574,0,0,0-.209.621.3.3,0,0,0,.486.081Z" transform="translate(-422.219 -268.234)" fill="#37474f"/>
            <path id="Path_112920" data-name="Path 112920" d="M428.3,282.6a10.8,10.8,0,0,0-2.025-3.469,12.5,12.5,0,0,0-1.249-1.35,7.463,7.463,0,0,0-1.788-1.255h-.162a19.306,19.306,0,0,1,1.573,1.444,10.8,10.8,0,0,1,1.249,1.5,16.948,16.948,0,0,1,1.93,3.375C427.929,283.1,428.368,282.827,428.3,282.6Z" transform="translate(-419.906 -266.608)" fill="#37474f"/>
          </g>
        </g>
      </g>
      <g id="freepik--rock--inject-133-7" data-name="freepik--rock--inject-133" transform="translate(111.689 160.316)">
        <path id="freepik--shadow--inject-133-3" data-name="freepik--shadow--inject-133" d="M240.627,413.647,235.6,421.82l-17.554,3.172-20.929-5.116-2.686-4.765,19.464-5.6,21.064.7Z" transform="translate(-194.43 -385.214)" fill="#f28a29" opacity="0.45"/>
        <g id="freepik--rock--inject-133-8" data-name="freepik--rock--inject-133" transform="translate(9.381)">
          <path id="Path_112921" data-name="Path 112921" d="M208.33,404.218l15.489,5.136,13.795-1.687,5.042-5.284-2.538-10.5-3.894,2.295-2.848,5.008,1.37-5.885,2.774-2.106-6.142-15.577-5.757-2.106-4.252,1.9-3.665.8-3.273,9.408-2.76,2.052Z" transform="translate(-208.33 -373.51)" fill="#37474f"/>
          <path id="Path_112922" data-name="Path 112922" d="M249.584,399.71l-2.774,2.106-1.37,5.885,2.848-5.008,3.894-2.295Z" transform="translate(-220.394 -382.028)" fill="#3e3e3e"/>
          <path id="Path_112923" data-name="Path 112923" d="M211.671,394.48l9.84,4.218,1.89,7.8-4.178.182,4.3,2.538.3,6.958-15.489-5.136Z" transform="translate(-208.33 -380.327)" fill="#3e3e3e"/>
          <path id="Path_112924" data-name="Path 112924" d="M224.47,411.487l4.178-.182,7.073-2.025-6.951,4.745Z" transform="translate(-213.577 -385.139)" fill="#455a64"/>
          <path id="Path_112925" data-name="Path 112925" d="M229.7,383.467l.283-4.819-4.1-2.328-3.665.8.574.27,3.428,2.389,2.619,5.237,3.725,2.234Z" transform="translate(-212.846 -374.424)" fill="#3e3e3e"/>
          <path id="Path_112926" data-name="Path 112926" d="M227.65,375.406l4.1,2.328,4.043-.628-2-1.323,3.874-.169L231.9,373.51Z" transform="translate(-214.611 -373.51)" fill="#455a64"/>
          <path id="Path_112927" data-name="Path 112927" d="M216.04,391.44l7.41,3.9,8.308.52-8.639,1.849-9.84-4.218Z" transform="translate(-209.939 -379.339)" fill="#455a64"/>
        </g>
      </g>
      <g id="freepik--rock--inject-133-9" data-name="freepik--rock--inject-133" transform="translate(68.354 187.771)">
        <path id="freepik--shadow--inject-133-4" data-name="freepik--shadow--inject-133" d="M164.957,434.952l-1.741,3.273-16.778,4.927-16.218-5.244,2.484-4.954,12.357-2.025Z" transform="translate(-130.22 -419.632)" fill="#f28a29" opacity="0.45"/>
        <g id="freepik--rock--inject-133-10" data-name="freepik--rock--inject-133" transform="translate(6.128)">
          <path id="Path_112928" data-name="Path 112928" d="M139.3,429.416l10.09,5.325,16.333-4.218-2.3-6.243-5.784-4.083-3.989-1.107-4.259-4.9-4.259.432Z" transform="translate(-139.3 -414.19)" fill="#37474f"/>
          <path id="Path_112929" data-name="Path 112929" d="M158.619,423.09l-2.085,5.008-6.722,1-7.491-1.957,9.172,4.711,10.609-1.782,2.3-2.9Z" transform="translate(-140.282 -417.083)" fill="#455a64"/>
          <path id="Path_112930" data-name="Path 112930" d="M154.25,439.6l1.12-5.784,10.609-1.782,2.3-2.9,2.3,6.243Z" transform="translate(-144.16 -419.05)" fill="#3e3e3e"/>
          <path id="Path_112931" data-name="Path 112931" d="M152.2,414.19l-4.259.432,3.874,2.949,4.643,1.519Z" transform="translate(-142.109 -414.19)" fill="#455a64"/>
        </g>
      </g>
      <g id="freepik--rock--inject-133-11" data-name="freepik--rock--inject-133" transform="translate(44.051 153.527)">
        <path id="freepik--shadow--inject-133-5" data-name="freepik--shadow--inject-133" d="M132.787,379.307l-3.543,3.125H124.8l-5.561,5.581L94.21,380.144l4.34-5.467,16.191-2.5Z" transform="translate(-94.21 -366.288)" fill="#f28a29" opacity="0.45"/>
        <g id="freepik--rock--inject-133-12" data-name="freepik--rock--inject-133" transform="translate(5.338)">
          <path id="Path_112932" data-name="Path 112932" d="M134.42,377.595l-.972-8.025-8.288,7.539,1.134,7.6Z" transform="translate(-109.61 -365.44)" fill="#37474f"/>
          <path id="Path_112933" data-name="Path 112933" d="M118.8,384.708l-16.684-6.884,4.765-8.254,10.785,7.539Z" transform="translate(-102.12 -365.44)" fill="#3e3e3e"/>
          <path id="Path_112934" data-name="Path 112934" d="M128.253,367.58l-11.919-4.13-7.154,4.13,10.785,7.539Z" transform="translate(-104.415 -363.45)" fill="#455a64"/>
          <path id="Path_112935" data-name="Path 112935" d="M134.34,383.444l2.976.3v-3.86l-2.261-.58Z" transform="translate(-112.595 -368.603)" fill="#3e3e3e"/>
          <path id="Path_112936" data-name="Path 112936" d="M140.862,378.33l-2.112,1.235v3.86l3.165-1.519Z" transform="translate(-114.028 -368.287)" fill="#37474f"/>
          <path id="Path_112937" data-name="Path 112937" d="M135.4,378.536l1.971-1.586,2.4.931-2.112,1.235Z" transform="translate(-112.939 -367.839)" fill="#455a64"/>
        </g>
      </g>
    </g>
    <g id="freepik--Arrow--inject-133" transform="translate(218.699 99.724)">
      <path id="freepik--arrow--inject-133-2" data-name="freepik--arrow--inject-133" d="M319.05,141.048l74.023,42.735v9.5l16.447-6.331-16.447-25.329v9.5L319.05,128.38Z" transform="translate(-319.05 -128.38)" fill="#e0e0e0"/>
    </g>
    <g id="freepik--shadow--inject-133-6" data-name="freepik--shadow--inject-133" transform="translate(123.357 149.893)">
      <path id="freepik--shadow--inject-133-7" data-name="freepik--shadow--inject-133" d="M181.9,205.094c-5.487,3.165-5.487,8.295,0,11.473s14.369,3.165,19.849,0,5.487-8.295,0-11.473S187.378,201.929,181.9,205.094Z" transform="translate(-177.783 -202.715)" opacity="0.2"/>
    </g>
    <g id="freepik--Lines--inject-133" transform="translate(78.798 120.42)">
      <g id="freepik--lines--inject-133-2" data-name="freepik--lines--inject-133" transform="translate(0)">
        <path id="Path_112938" data-name="Path 112938" d="M111.76,160.769a5.946,5.946,0,0,1,2.821-1.552,7.775,7.775,0,0,1,3.253,0,14.673,14.673,0,0,1,5.878,2.774,25.335,25.335,0,0,1,4.657,4.576,29.8,29.8,0,0,1,3.455,5.548h-.54a12.242,12.242,0,0,1,1.674-2.484,8.963,8.963,0,0,1,2.376-1.856,9.537,9.537,0,0,1,5.878-.871,17.723,17.723,0,0,1,5.6,1.917,28.474,28.474,0,0,1,4.913,3.26,40.393,40.393,0,0,1,12.823,19.248A42.735,42.735,0,0,0,159.239,181a40.691,40.691,0,0,0-7.883-8.49,28.04,28.04,0,0,0-4.826-3.165,17.3,17.3,0,0,0-5.4-1.809,9.057,9.057,0,0,0-5.487.776,8.605,8.605,0,0,0-2.207,1.708,11.859,11.859,0,0,0-1.606,2.335h0a.3.3,0,0,1-.412.115.25.25,0,0,1-.128-.135,31.3,31.3,0,0,0-3.334-5.473,25.018,25.018,0,0,0-4.481-4.576,15.01,15.01,0,0,0-5.676-2.868,7.532,7.532,0,0,0-3.179-.081,6.074,6.074,0,0,0-2.862,1.431Z" transform="translate(-111.76 -159.045)" fill="#f0f0f0"/>
        <path id="Path_112939" data-name="Path 112939" d="M140.168,171.854a.263.263,0,0,1-.243-.169l-.992-2.848a.25.25,0,0,1,.155-.324.256.256,0,0,1,.324.155l.992,2.828a.25.25,0,0,1-.155.317.182.182,0,0,1-.081.04Z" transform="translate(-120.589 -162.119)" fill="#f0f0f0"/>
        <path id="Path_112940" data-name="Path 112940" d="M142.556,171.126h-.088a.256.256,0,0,1-.155-.324l.965-2.835a.253.253,0,0,1,.479.162l-.965,2.835a.25.25,0,0,1-.236.162Z" transform="translate(-121.688 -161.89)" fill="#f0f0f0"/>
        <path id="Path_112941" data-name="Path 112941" d="M186.049,190.393a.257.257,0,0,1-.236-.169l-1-2.828a.263.263,0,0,1,.155-.324.25.25,0,0,1,.324.155l1,2.828a.25.25,0,0,1-.155.317.209.209,0,0,1-.088.02Z" transform="translate(-135.506 -168.152)" fill="#f0f0f0"/>
        <path id="Path_112942" data-name="Path 112942" d="M188.44,189.616h-.081a.256.256,0,0,1-.155-.324l.965-2.835a.253.253,0,0,1,.479.162l-.965,2.835a.256.256,0,0,1-.243.162Z" transform="translate(-136.607 -167.901)" fill="#f0f0f0"/>
      </g>
    </g>
    <g id="freepik--Character--inject-133" transform="translate(133.947 40.58)">
      <g id="freepik--character--inject-133-2" data-name="freepik--character--inject-133">
        <g id="freepik--Bottom--inject-133" transform="translate(0 54.527)">
          <path id="Path_112943" data-name="Path 112943" d="M201.516,177.309a2.808,2.808,0,0,0-2.281,1.039,12.823,12.823,0,0,0-.891,3.651,11.109,11.109,0,0,1-2.308,5.946c-1.411,1.762-3.219,5.77-2.322,8.457s2.153,4.913,4.724,5.554,5.163-1.95,6.034-3.705Z" transform="translate(-193.474 -139.67)" fill="#37474f"/>
          <path id="Path_112944" data-name="Path 112944" d="M195.329,191.974a4.839,4.839,0,0,1-.054-1.465,8.653,8.653,0,0,1,1.215-3.712,24.656,24.656,0,0,0,2.328-3.5,17.339,17.339,0,0,0,1.417-4.164,14.416,14.416,0,0,1,.817-3.516c1.579-3.24,5.237-2.551,7.37-2.7l8.031-4.724,1.849,10.353s-4.211,1.1-5.46,1.613c-1.647.675-3.287,2.531-4.373,3.86-1.35,1.694-3.044,3.435-3.267,5.689a16.822,16.822,0,0,0,.182,3.678,3.374,3.374,0,0,1,0,1.046c-.189.952-1.107,1.546-1.937,2.025-1.35.79-2.963,1.606-4.407,1.006a4.758,4.758,0,0,1-1.923-1.809,9.847,9.847,0,0,1-1.788-3.678Z" transform="translate(-194.049 -136.706)" fill="#f28f8f"/>
          <path id="Path_112945" data-name="Path 112945" d="M205.389,192.588a8.672,8.672,0,0,1,1.4-3.894,32.036,32.036,0,0,1,3.557-4.3c.8-.641,1.478-.79,1.262-1.046a26.192,26.192,0,0,0-5.777-1.87c-1.424-.162-1.687.675-2.5,1.262a6.479,6.479,0,0,0,1.478-3.064c.115-1.154.891-4.2,2.882-4.529l.641-.155s.1-.459-.729-.351a23.488,23.488,0,0,0-4.664.9,4.124,4.124,0,0,0-2.7,3.111c-.486,2.058-.243,2.754-1.012,4.758a18.9,18.9,0,0,1-2.733,5.042,8.868,8.868,0,0,0-1.519,5.993Z" transform="translate(-193.946 -138.798)" fill="#455a64"/>
          <path id="Path_112946" data-name="Path 112946" d="M261.047,124.489c.412,4.65-1.215,13.194-4.637,22.393s-4.792,10.474-6.486,11.1c-7.545,2.754-27.367,6.445-27.367,6.445s-3.725-4.542-2.328-9.091c6.074-3.543,16.069-9.692,20.517-8.976L234.24,121.54Z" transform="translate(-202.07 -121.54)" fill="#37474f"/>
          <path id="Path_112947" data-name="Path 112947" d="M199.431,208.344a6.751,6.751,0,0,0,5.507-2.828c1.235-1.667.425-4.049.459-4.792-.115-.29-1.9-1.235-5.176-1.046s-4.488,1.411-5.271,2.916C194.984,204.213,197.123,208.121,199.431,208.344Z" transform="translate(-193.954 -146.934)" fill="#f0f0f0"/>
          <path id="Path_112948" data-name="Path 112948" d="M290.9,224.7c-.675.094-.628-.877-1.235-3.017s-2.7-11.406-2.7-11.406l-10.8,4.826s3.435,7.6,4.5,9.793c1.181,2.43,2.835,5.764,3.186,7.694s.8,7.336,3.294,8.16,4.684-.425,6.229-1.579,3.179-4.934,4.846-6.9,3.1-3.1,4.36-5.1.857-6.749-1.06-7.64-4.488.418-5.986,1.444S292.253,224.534,290.9,224.7Z" transform="translate(-220.359 -150.389)" fill="#f28f8f"/>
          <path id="Path_112949" data-name="Path 112949" d="M239.666,121.54c-4.394,5.98-3.779,14.227.074,20.976,3.584,6.283,7.275,10.933,16.09,24.681a30.564,30.564,0,0,0,3.557,12.31c3.6,7.282,7.539,15.111,7.539,15.111a9.874,9.874,0,0,1,9.233-4.9c-.675-3.685-4.461-21.192-6.007-26.321-1.93-6.391-9.138-28.211-9.138-28.211a15.347,15.347,0,0,0,5.048-13.073Z" transform="translate(-207.496 -121.54)" fill="#455a64"/>
          <path id="Path_112950" data-name="Path 112950" d="M288.473,245.444a21.92,21.92,0,0,1-1.451-5.764,10.063,10.063,0,0,0-.992-3.665s.176-1.9,2.936-4.38,4.65-1.512,4.65-1.512.736,1.107,2.443-1.114l3.671,4.144Z" transform="translate(-223.564 -156.478)" fill="#455a64"/>
          <path id="Path_112951" data-name="Path 112951" d="M309.743,223.3c-1.147-.965-2.875-.844-5.1.439a13.5,13.5,0,0,0-3.894,3.206,3,3,0,0,0,.85,3.658C303.52,231.989,309.743,223.3,309.743,223.3Z" transform="translate(-228.251 -154.416)" fill="#f0f0f0"/>
          <path id="Path_112952" data-name="Path 112952" d="M307.995,225.421a2.328,2.328,0,0,0-.965-1.505c-.162-.088-.675-.331-.81-.391-1.4-.8-3.712,1.235-5.635,3.213-2.247,2.3-4.178,6.749-5.919,9.806s-4.049,4.319-4.772,5.662a2.126,2.126,0,0,0,.385,2.605c.135.128.607.52.675.6a3.5,3.5,0,0,0,3.1.412c2.632-.675,4.5-1.64,6.513-4.913s3.071-4.967,5.521-7.14S308.7,227.911,307.995,225.421Z" transform="translate(-224.728 -154.637)" fill="#37474f"/>
          <path id="Path_112953" data-name="Path 112953" d="M308.348,225.611c-.985-3.5-4.11-.844-6.6,1.714-2.247,2.3-4.178,6.749-5.926,9.806s-4.117,4.286-4.772,5.656c-1.174,2.49.756,3.9,3.375,3.226a9.468,9.468,0,0,0,6.513-4.913c2.011-3.273,3.071-4.967,5.521-7.14S309.057,228.1,308.348,225.611Z" transform="translate(-225.082 -154.827)" fill="#3e3e3e"/>
          <path id="Path_112954" data-name="Path 112954" d="M297.228,230.781h0c-.783.4-1.134-.121-1.134-.121-2.376,2.7-2.544,4.373-2.544,4.373A26.6,26.6,0,0,1,297.228,230.781Z" transform="translate(-226.009 -157.015)" fill="#37474f"/>
          <path id="Path_112955" data-name="Path 112955" d="M268.4,143.5a104.064,104.064,0,0,1,5.473,12.054c1.586,4.124,3.111,8.274,4.286,12.546s2.153,8.558,3.165,12.823,2.025,8.6,2.916,12.911q-1.9-6.337-3.624-12.722c-1.161-4.252-2.268-8.517-3.374-12.783-.54-2.126-1.242-4.211-1.923-6.3s-1.417-4.164-2.146-6.243-1.492-4.137-2.281-6.2S269.291,145.518,268.4,143.5Z" transform="translate(-217.833 -128.679)" fill="#37474f"/>
        </g>
        <g id="freepik--Top--inject-133" transform="translate(13.117)">
          <path id="Path_112956" data-name="Path 112956" d="M272.96,108.09c-2.173,6.823-7.815,14.139-19.221,15.233s-14.976-8.774-12.965-11.831S272.96,108.09,272.96,108.09Z" transform="translate(-221.796 -62.64)" fill="#37474f"/>
          <path id="Path_112957" data-name="Path 112957" d="M305.527,76.021c1.276-3.692,1.525-4.488,2.025-5.257a14.01,14.01,0,0,0,2.025-3.375c.344-1.276.675-2.4.675-2.4s.283-1.235-.169-1.768a.8.8,0,0,0-1.08-.236,1.114,1.114,0,0,0-.2-1.35,1.06,1.06,0,0,0-1.35,0s.493-1.107-.4-1.633a1.026,1.026,0,0,0-1.424.243,1.249,1.249,0,0,0-.722-1.579c-.594-.277-1.309-.061-2.2,1.9a2.747,2.747,0,0,0-1.431.675,8.675,8.675,0,0,0-1.35,4.083c.067.979.223,1.977.391,3.118a5.939,5.939,0,0,1-.6,4c-.8,1.647-4.225,7.714-4.225,7.714s-1.384-1.08-7.316-5.4c-4.218-3.057-5.534-4.6-9.388-4.6-5.4,0-1.458,6.074,1.141,10.987,4.157,2.45,10.832,6.432,13.788,7.667,3.455,1.444,5.433,1.633,6.945-.634C303.239,84.275,304.372,79.342,305.527,76.021Z" transform="translate(-233.447 -46.54)" fill="#ffa8a7"/>
          <path id="Path_112958" data-name="Path 112958" d="M275.07,75.695c4.265-.155,5.926-.479,8.922,1.647s11.136,8.1,11.136,8.1l3.219-6.074a8.1,8.1,0,0,0,3.3,2.632c2.335,1.087,3.327.756,3.327.756a53.061,53.061,0,0,1-3.374,9.239c-1.829,3.381-3,4.367-6.641,3.213s-15.523-8.22-15.523-8.22Z" transform="translate(-233.118 -52.071)" fill="#37474f"/>
          <path id="Path_112959" data-name="Path 112959" d="M321.334,67.765l-.1.074a.925.925,0,0,1-.823.2.749.749,0,0,1-.31-.574,3.273,3.273,0,0,1,.128-1.046.087.087,0,0,0,0-.04h-.095c-.148.142-.263.324-.4.472a.837.837,0,0,1-.742.27c-.567-.061-.628-.783-.567-1.242,0-.148.054-.3.068-.459v-.047h0a.674.674,0,0,0-.209.209,1.235,1.235,0,0,1-.236.223.675.675,0,0,1-.371.162c-.31,0-.4-.27-.486-.513a2.443,2.443,0,0,1-.047-1.249v-.04h.108c1.08.263,1.573-.79,1.249-1.107a7.132,7.132,0,0,1-.567-.675,4.426,4.426,0,0,0-.776-.675,1.762,1.762,0,0,0-.891-.385,4.913,4.913,0,0,0-.992.115,2.619,2.619,0,0,1,1.141.108,2.524,2.524,0,0,1,.952.675l.513.506.283.277a.675.675,0,0,1,.155.2c.2.493-.56.769-.9.742a6.675,6.675,0,0,1-1.572-.472c-.088.432-1.1,1.012-1.1,1.012a8.774,8.774,0,0,1,2.193,1.721,9.753,9.753,0,0,1,1.8,3.051,6.108,6.108,0,0,0-1.127-2.936.81.81,0,0,0,.459-.128c-.061.675,0,1.255.769,1.35a1,1,0,0,0,.965-.337.911.911,0,0,0,.391.9.817.817,0,0,0,1.06-.121l.135-.2a.094.094,0,0,0,0-.04A.148.148,0,0,1,321.334,67.765Zm-5.514-3.928s.25.094,1.073.3a4.886,4.886,0,0,0-.263.533,1.067,1.067,0,0,1-.2.263l-.081.047a7.791,7.791,0,0,0-.952-.783A.877.877,0,0,0,315.82,63.837Z" transform="translate(-246.015 -47.435)" fill="#f28f8f"/>
          <path id="Path_112960" data-name="Path 112960" d="M317.59,66.27Z" transform="translate(-246.941 -49.045)" fill="#f28f8f"/>
          <g id="freepik--Chest--inject-133" transform="translate(19.025 23.626)">
            <path id="Path_112961" data-name="Path 112961" d="M241.1,106.67a35.938,35.938,0,0,0,3.111-7.154,22.184,22.184,0,0,0,.567-7.127A53.653,53.653,0,0,1,246,80.416c.742-2.436,6.459-3.1,13.113-4.2,6.884-1.134,9.449.135,11.008,2.565s5.527,9.233,5.21,13.694c-.412,5.73-4.637,6.641-4.637,6.641a25.591,25.591,0,0,0-2.578,5.1c-.364,1.316-.061,3.064-.088,7.66,0,0-1.235,5.325-13.646,3.064C244.124,113.054,241.1,106.67,241.1,106.67Z" transform="translate(-241.1 -75.768)" fill="#f28a29"/>
            <path id="Path_112962" data-name="Path 112962" d="M241.1,106.67a35.938,35.938,0,0,0,3.111-7.154,22.184,22.184,0,0,0,.567-7.127A53.653,53.653,0,0,1,246,80.416c.742-2.436,6.459-3.1,13.113-4.2,6.884-1.134,9.449.135,11.008,2.565s5.527,9.233,5.21,13.694c-.412,5.73-4.637,6.641-4.637,6.641a25.591,25.591,0,0,0-2.578,5.1c-.364,1.316-.061,3.064-.088,7.66,0,0-1.235,5.325-13.646,3.064C244.124,113.054,241.1,106.67,241.1,106.67Z" transform="translate(-241.1 -75.768)" fill="#fff" opacity="0.8"/>
            <path id="Path_112963" data-name="Path 112963" d="M276.415,90.92A19.741,19.741,0,0,1,278.73,98a12.4,12.4,0,0,1,0,3.773,8.428,8.428,0,0,1-.553,1.829c-.243.58-.513,1.147-.79,1.708a25.693,25.693,0,0,0-1.573,3.327,7.189,7.189,0,0,0-.364,1.755v1.849a28.689,28.689,0,0,1-.31,3.725,12.017,12.017,0,0,1-.432,1.829,4.144,4.144,0,0,1-.9,1.627,4.408,4.408,0,0,0,.763-1.667,11.944,11.944,0,0,0,.3-1.822,29.381,29.381,0,0,0,.162-3.7c0-.621-.054-1.208,0-1.869a7.381,7.381,0,0,1,.364-1.883,24.912,24.912,0,0,1,1.559-3.415c.283-.553.553-1.1.79-1.66a7.423,7.423,0,0,0,.547-1.721,13.379,13.379,0,0,0,.081-3.638,22.177,22.177,0,0,0-.675-3.631A21.138,21.138,0,0,0,276.415,90.92Z" transform="translate(-251.734 -80.684)" fill="#f28a29" opacity="0.2"/>
            <path id="Path_112964" data-name="Path 112964" d="M274.64,75.792l.567,1.633s6.31,5.136,8.517,8.551a27.353,27.353,0,0,1,2.457,4.873c-.418-4.724-3.766-10.07-5.136-12.222C279.911,76.845,278.7,75.508,274.64,75.792Z" transform="translate(-252.004 -75.754)" fill="#455a64"/>
            <path id="Path_112965" data-name="Path 112965" d="M272.349,109.286c-1.505,1.95-7.9,3.563-11.939-.466C261.3,112.444,269.211,114.543,272.349,109.286Z" transform="translate(-247.378 -86.503)" fill="#f28a29" opacity="0.2"/>
          </g>
          <g id="freepik--Head--inject-133" transform="translate(8.828)">
            <path id="Path_112966" data-name="Path 112966" d="M252.271,53.715a2.243,2.243,0,0,0,1.242-3.631c-1.174-1.471-4.2-1.917-5.919-1.829a9.253,9.253,0,0,0-6.074,2.7c-.756.769-1.35,1.667-2.146,2.43a5.676,5.676,0,0,1-6.837.769c-.985-.553-1.822-1.35-2.855-1.8a2.669,2.669,0,0,0-3.111.432,2.7,2.7,0,0,0-.5,1.269,5.689,5.689,0,0,0,3.125,6.074c-.634.277-2.025-.486-2.544-1.2.344,1.4,1.039,3.273,4.049,5.048a11.156,11.156,0,0,0,10.7.493c5.042-2.261,4.961-6.864,6.83-8.659a7.248,7.248,0,0,1,4.043-2.092Z" transform="translate(-225.99 -43.184)" fill="#3e3e3e"/>
            <path id="Path_112967" data-name="Path 112967" d="M262.966,64.85c-.9-.81-2.868-3.165-5.008-4.981-2.976-2.517-5.548-8.969-1.269-10.8-.432-6.634,8.3-8.814,12.648-8.234,11.926,1.606,7.37,11.224,7.37,11.224Z" transform="translate(-235.234 -40.747)" fill="#37474f"/>
            <path id="Path_112968" data-name="Path 112968" d="M275.4,49.275c1.35,1.444,2.659,4.171,2.207,10.94-.331,4.9-1.863,6.216-3.611,6.864a9.327,9.327,0,0,1-4.016.223l-.715,2.349s2.315,1.255,1.181,7.356c-1.35-.6-2.814-2.862-3.847-3.408a34.418,34.418,0,0,1-6.513-4.346l1.741-8.268a2.324,2.324,0,0,1-3.651-.277c-1.539-1.89-1.107-4.232.243-5.055s2.97,0,3.557,1.573c.418,1.06,1.35,1.154,2.072-.061,1.755-2.943-.162-5.676,1.633-7.032s3.941,1.1,6.385,1.134C273.588,51.286,274.013,48.506,275.4,49.275Z" transform="translate(-236.137 -43.476)" fill="#ffa8a7"/>
            <path id="Path_112969" data-name="Path 112969" d="M279.1,57.79l1.053,5.278,2.821-1.033C281.53,59.835,280.187,58.141,279.1,57.79Z" transform="translate(-243.256 -46.288)" fill="#f28f8f"/>
            <path id="Path_112970" data-name="Path 112970" d="M272.5,73.826c-4.137-.675-7.127-2.808-7.559-4.616a5.966,5.966,0,0,0,1.626,3.125c1.755,1.708,5.656,2.409,5.656,2.409Z" transform="translate(-238.652 -50)" fill="#f28f8f"/>
            <path id="Path_112971" data-name="Path 112971" d="M279.133,68.524l-3.172-.864a1.579,1.579,0,0,0,1.1,2.025A1.748,1.748,0,0,0,279.133,68.524Z" transform="translate(-242.209 -49.496)" fill="#b16668"/>
            <path id="Path_112972" data-name="Path 112972" d="M277.756,70.094a1.708,1.708,0,0,1-.715,0,1.579,1.579,0,0,1-1.141-1.235A1.9,1.9,0,0,1,277.756,70.094Z" transform="translate(-242.215 -49.886)" fill="#f28f8f"/>
            <path id="Path_112973" data-name="Path 112973" d="M273.778,59.835a.9.9,0,1,0,.82-.982.9.9,0,0,0-.82.982Z" transform="translate(-241.525 -46.632)" fill="#3e3e3e"/>
            <path id="Path_112974" data-name="Path 112974" d="M283.118,59.269a.9.9,0,1,0,.82-.975.9.9,0,0,0-.82.975Z" transform="translate(-244.561 -46.45)" fill="#3e3e3e"/>
            <path id="Path_112975" data-name="Path 112975" d="M285.112,56.041,283,55.514a1.06,1.06,0,0,1,1.3-.81A1.147,1.147,0,0,1,285.112,56.041Z" transform="translate(-244.524 -45.274)" fill="#3e3e3e"/>
            <path id="Path_112976" data-name="Path 112976" d="M271.944,56.574l1.951-1.053a1.073,1.073,0,0,0-1.471-.472A1.168,1.168,0,0,0,271.944,56.574Z" transform="translate(-240.892 -45.355)" fill="#3e3e3e"/>
          </g>
          <path id="Path_112977" data-name="Path 112977" d="M245.98,76.91c.621,7.08,1.525,18.391-4.657,27.725-8.052,12.148-22.778,12.756-22.778,12.756a37.119,37.119,0,0,1-5.635-7.35c6.891,6.3,9.293-10.549,18.56-12.634,0,0,4.414,2.3,3.928-5.467-.4-6.526-.189-10.711,2.929-13.377Z" transform="translate(-212.91 -52.504)" fill="#455a64"/>
          <path id="Path_112978" data-name="Path 112978" d="M239.623,121.37a22.888,22.888,0,0,1-16.778,5.824c-7.228-.594-9.935-2.7-9.935-2.7s2.524,5.723,5.635,7.37A28.557,28.557,0,0,0,239.623,121.37Z" transform="translate(-212.91 -66.958)" fill="#37474f"/>
          <path id="Path_112979" data-name="Path 112979" d="M270.91,84.855s-1.532-.675-3.145-3.82c-.79-1.525-2.4-2.544-4.049-3.921a14.606,14.606,0,0,1-2.585-2.855l.2-.979s-.364.148-1.039,1.107A11.98,11.98,0,0,1,258.62,76.2c.6,2.929,5.507,6.5,6.432,8a4.326,4.326,0,0,0,2.382-2.126S269.385,84.328,270.91,84.855Z" transform="translate(-227.77 -51.324)" fill="#f28a29"/>
          <path id="Path_112980" data-name="Path 112980" d="M270.91,84.855s-1.532-.675-3.145-3.82c-.79-1.525-2.4-2.544-4.049-3.921a14.606,14.606,0,0,1-2.585-2.855l.2-.979s-.364.148-1.039,1.107A11.98,11.98,0,0,1,258.62,76.2c.6,2.929,5.507,6.5,6.432,8a4.326,4.326,0,0,0,2.382-2.126S269.385,84.328,270.91,84.855Z" transform="translate(-227.77 -51.324)" fill="#fff" opacity="0.6"/>
          <path id="Path_112981" data-name="Path 112981" d="M275.08,78.4a11.79,11.79,0,0,1,1.3,3.84,14.846,14.846,0,0,1-.121,3.516s.675-2.058.81-2.9,1.944.452,1.944.452a11.757,11.757,0,0,0-.675-3.536,9.139,9.139,0,0,0-1.424-2.646,3.064,3.064,0,0,0-1.1-1.08Z" transform="translate(-233.121 -52.224)" fill="#f28a29"/>
          <path id="Path_112982" data-name="Path 112982" d="M275.08,78.4a11.79,11.79,0,0,1,1.3,3.84,14.846,14.846,0,0,1-.121,3.516s.675-2.058.81-2.9,1.944.452,1.944.452a11.757,11.757,0,0,0-.675-3.536,9.139,9.139,0,0,0-1.424-2.646,3.064,3.064,0,0,0-1.1-1.08Z" transform="translate(-233.121 -52.224)" fill="#fff" opacity="0.6"/>
          <g id="freepik--Arm--inject-133" transform="translate(0.254 25.398)">
            <path id="Path_112983" data-name="Path 112983" d="M223.414,118.761a8.915,8.915,0,0,1-.952-2.7c.1-.715,1.262,1.066,1.768,1.411a1.957,1.957,0,0,0,1.417.432c.331,0,.844-.351.8-.675,0-.067-.067-.108-.108-.155a18.58,18.58,0,0,1-1.728-2.646,9.935,9.935,0,0,0-1.593-2.126,5.4,5.4,0,0,1-1.438-3.1,85.931,85.931,0,0,1,.142-11.959c4.556-1.586,10.69-3.921,12.283-4.556a32.279,32.279,0,0,0,3.692-1.546,8.16,8.16,0,0,0,3.658-4.049c.877-2.025.675-6.574-.155-8.605-4.859.776-6.135,2.025-9.077,3.442-2.025.985-4.272,2.112-8.207,4.1a90.673,90.673,0,0,0-8.234,4.562,3.581,3.581,0,0,0-2.025,3.827,65.433,65.433,0,0,0,.614,7.167c.256,1.89.486,2.7.945,5.8.088.587.209,1.525.351,2.625s.175,2.625.209,3.739a19.449,19.449,0,0,0,.364,3.374,11.578,11.578,0,0,0,1.8,4.049c.243.243.547.3.776.533s.344.547.594.763c.385.337.709.236,1.289.182a1.114,1.114,0,0,1,.675.108,3.152,3.152,0,0,1,.493.459,1.971,1.971,0,0,0,2.065.283l1.35,1.08a.4.4,0,0,0,.3.108.209.209,0,0,0,.155-.121,1.249,1.249,0,0,0,.229-.938,3.429,3.429,0,0,0-.709-1.667,36.127,36.127,0,0,1-1.741-3.2Z" transform="translate(-213.404 -78.416)" fill="#ffa8a7"/>
            <path id="Path_112984" data-name="Path 112984" d="M241.439,78.38c-2.882.155-3.752.25-10.609,3.719-8.16,4.13-12.985,6.675-15.293,8.1s-2.382,2.841-2.173,6.162.891,7.782.891,7.782,1.026.979,4.049.574,3.483-1.215,3.483-1.215l.142-6.02s13.849-5.089,15.759-5.939S244.038,87.032,241.439,78.38Z" transform="translate(-213.287 -78.38)" fill="#37474f"/>
          </g>
        </g>
      </g>
    </g>
    <g id="freepik--speech-bubble--inject-133" transform="translate(123.457 47.853)">
      <g id="freepik--speech-bubble--inject-133-2" data-name="freepik--speech-bubble--inject-133" transform="translate(0)">
        <g id="freepik--speech-bubble--inject-133-3" data-name="freepik--speech-bubble--inject-133">
          <path id="Path_112985" data-name="Path 112985" d="M204.69,61.368h-3.523V54.821a2.956,2.956,0,0,0-1.35-2.322l-1.087-.655a2.99,2.99,0,0,0-2.7,0L179.28,61.557a2.99,2.99,0,0,0-1.35,2.328V82.323a2.976,2.976,0,0,0,1.35,2.328l1.093.628a2.949,2.949,0,0,0,2.7,0l16.765-9.692a2.963,2.963,0,0,0,1.35-2.322v-5.9l4.1-4.724a.769.769,0,0,0-.6-1.276Z" transform="translate(-177.93 -51.523)" fill="#f28a29"/>
          <path id="Path_112986" data-name="Path 112986" d="M178,87.628a2.976,2.976,0,0,0,1.35,2.328l1.093.628a2.97,2.97,0,0,0,2.457.108c-.628.243-1.114-.115-1.114-.877V71.37a2.754,2.754,0,0,1,.4-1.35L178.4,67.84a2.74,2.74,0,0,0-.391,1.35Z" transform="translate(-177.953 -56.828)" opacity="0.2"/>
          <path id="Path_112987" data-name="Path 112987" d="M201.315,54.443c-.155-.574-.675-.756-1.3-.4l-16.765,9.7a2.6,2.6,0,0,0-.945,1l-3.779-2.18a2.7,2.7,0,0,1,.952-1l16.758-9.719a2.99,2.99,0,0,1,2.7,0l1.093.634a2.936,2.936,0,0,1,1.282,1.964Z" transform="translate(-178.125 -51.523)" fill="#fff" opacity="0.3"/>
        </g>
        <g id="freepik--Like--inject-133" transform="translate(7.944 10.175)">
          <path id="Path_112988" data-name="Path 112988" d="M202.583,73.787a2.767,2.767,0,0,1-.979,1.741,2.18,2.18,0,0,1,.142.837,2.632,2.632,0,0,1-1.282,2.025l-5.784,3.374v-7.6s1.593-3.624,1.734-4.144a16.515,16.515,0,0,0,0-2.7,1.35,1.35,0,0,1,1.552-.675.675.675,0,0,1,.344.371,4.353,4.353,0,0,1,.344,1.208,6.256,6.256,0,0,1-.115,2.146l3.5-2.025a.675.675,0,0,1,.675-.094.837.837,0,0,1,.364.756,2.585,2.585,0,0,1-.56,1.505s.675-.209.675.729a2.477,2.477,0,0,1-.837,1.7S202.583,73.133,202.583,73.787Z" transform="translate(-191.319 -66.599)" fill="#fafafa"/>
          <path id="Path_112989" data-name="Path 112989" d="M189.7,80.053v8.139c0,.182.128.256.283.169l1.944-1.127a.621.621,0,0,0,.283-.493V78.6c0-.182-.128-.256-.283-.162l-1.957,1.12A.628.628,0,0,0,189.7,80.053Z" transform="translate(-189.7 -70.435)" fill="#fafafa"/>
        </g>
      </g>
    </g>
  </g>
</svg>
