<svg xmlns="http://www.w3.org/2000/svg" width="304.436" height="300.565" viewBox="0 0 304.436 300.565">
  <g id="Sprout-amico" transform="translate(-11.62 -24.512)">
    <g id="freepik--Floor--inject-330" transform="translate(11.62 171.633)">
      <ellipse id="freepik--floor--inject-330-2" data-name="freepik--floor--inject-330" cx="152.218" cy="76.722" rx="152.218" ry="76.722" fill="#fafafa"/>
    </g>
    <g id="freepik--Window--inject-330" transform="translate(240.879 24.512)">
      <g id="freepik--window--inject-330-2" data-name="freepik--window--inject-330">
        <path id="Path_112713" data-name="Path 112713" d="M437.366,85.735c0-21.481-14.15-47.068-31.6-57.144-9.24-5.338-17.554-5.255-23.333-.811-7.184,2.982-11.781,11.245-11.781,23.492V156.934l63.217,36.493,3.512-2.024Z" transform="translate(-370.65 -24.512)" fill="#e6e6e6"/>
        <path id="Path_112714" data-name="Path 112714" d="M433.854,194.548V88.913c0-21.487-14.15-47.074-31.6-57.15s-31.6-.83-31.6,20.657V158.081Z" transform="translate(-370.65 -25.659)" fill="#f5f5f5"/>
        <path id="Path_112715" data-name="Path 112715" d="M432.355,90.873v99.672l-56.295-32.5V54.38c0-10.734,3.78-18.141,10.134-20.478a13.154,13.154,0,0,1,4.6-.792,23.618,23.618,0,0,1,11.679,3.614C418.958,46.232,432.355,70.522,432.355,90.873Z" transform="translate(-372.605 -27.62)" fill="#e0e0e0"/>
        <path id="Path_112716" data-name="Path 112716" d="M376.06,227.6l3.569-2.056,52.725,30.446V260.1Z" transform="translate(-372.605 -97.173)" fill="#ebebeb"/>
        <path id="Path_112717" data-name="Path 112717" d="M434.375,90.873v95.559L381.65,155.986V52.317c0-8.531,2.395-14.968,6.571-18.416a13.154,13.154,0,0,1,4.6-.792A23.618,23.618,0,0,1,404.5,36.724C420.978,46.232,434.375,70.522,434.375,90.873Z" transform="translate(-374.626 -27.62)" fill="#fff"/>
        <path id="Path_112718" data-name="Path 112718" d="M420.891,176.627l-3.461-1.992V36.81h3.461Z" transform="translate(-387.559 -28.957)" fill="#f5f5f5"/>
        <path id="Path_112719" data-name="Path 112719" d="M426.3,45.029v131.58L422.85,178.6V42.27A41.361,41.361,0,0,1,426.3,45.029Z" transform="translate(-389.518 -30.931)" fill="#e0e0e0"/>
        <path id="Path_112720" data-name="Path 112720" d="M376.06,166.24l26.417,15.255v4.055L376.06,170.3Z" transform="translate(-372.605 -75.739)" fill="#f5f5f5"/>
        <path id="Path_112721" data-name="Path 112721" d="M379.629,163.02l-3.569,2.056,26.417,15.255v-4.055Z" transform="translate(-372.605 -74.576)" fill="#ebebeb"/>
        <path id="Path_112722" data-name="Path 112722" d="M422.85,193.25,449.267,208.5v4.055L422.85,197.3Z" transform="translate(-389.518 -85.502)" fill="#f5f5f5"/>
        <path id="Path_112723" data-name="Path 112723" d="M426.42,190.02l-3.569,2.063,26.417,15.249v-4.055Z" transform="translate(-389.518 -84.335)" fill="#ebebeb"/>
        <path id="Path_112724" data-name="Path 112724" d="M376.06,89.86l26.417,15.255v4.055L376.06,93.921Z" transform="translate(-372.605 -48.132)" fill="#f5f5f5"/>
        <path id="Path_112725" data-name="Path 112725" d="M379.629,86.64,376.06,88.7l26.417,15.255V99.9Z" transform="translate(-372.605 -46.968)" fill="#ebebeb"/>
        <path id="Path_112726" data-name="Path 112726" d="M422.85,116.87l26.417,15.249v4.061L422.85,120.925Z" transform="translate(-389.518 -57.895)" fill="#f5f5f5"/>
        <path id="Path_112727" data-name="Path 112727" d="M426.42,113.65l-3.569,2.056,26.417,15.249v-4.048Z" transform="translate(-389.518 -56.731)" fill="#ebebeb"/>
      </g>
    </g>
    <g id="freepik--Pictures--inject-330" transform="translate(17.29 35.896)">
      <g id="freepik--pictures--inject-330-2" data-name="freepik--pictures--inject-330">
        <g id="freepik--Picture--inject-330">
          <g id="freepik--Frame--inject-330">
            <path id="Path_112728" data-name="Path 112728" d="M25.26,123.529l1.6.951,32.8-18.939-1.6-.951Z" transform="translate(-22.22 -64.84)" fill="#fafafa"/>
            <path id="Path_112729" data-name="Path 112729" d="M58.97,86.1l-31.2,18.007V71.441l31.2-18Z" transform="translate(-23.128 -46.352)" fill="#fff"/>
            <path id="Path_112730" data-name="Path 112730" d="M61.856,43.79,23,66.21v41.506L61.83,85.3ZM58.842,83.565,26.046,102.5V67.953l32.8-18.92Z" transform="translate(-21.404 -42.864)" fill="#f0f0f0"/>
            <path id="Path_112731" data-name="Path 112731" d="M78.226,86.522l-1.6-.951V52.909l1.6-.939Z" transform="translate(-40.788 -45.821)" fill="#e0e0e0"/>
            <path id="Path_112732" data-name="Path 112732" d="M60.959,43.266,59.33,42.34,20.5,64.76l1.622.926Z" transform="translate(-20.5 -42.34)" fill="#fafafa"/>
            <path id="Path_112733" data-name="Path 112733" d="M20.5,77.45l1.622.926v41.519l-1.622-.932Z" transform="translate(-20.5 -55.03)" fill="#e0e0e0"/>
          </g>
          <g id="freepik--Land--inject-330" transform="translate(5.862 20.338)">
            <path id="Path_112734" data-name="Path 112734" d="M58.44,92.625,29.68,109.234v-8.308l7.19-16.6,4.476,4.151-1.609,6.96L49.667,74.19,58.44,84.324Z" transform="translate(-29.68 -74.19)" fill="#f0f0f0"/>
            <path id="Path_112735" data-name="Path 112735" d="M46.326,77.336A4.7,4.7,0,0,0,44.2,81.02c0,1.354.951,1.916,2.126,1.226a4.693,4.693,0,0,0,2.126-3.684C48.453,77.208,47.5,76.659,46.326,77.336Z" transform="translate(-34.928 -75.222)" fill="#f0f0f0"/>
          </g>
        </g>
        <g id="freepik--picture--inject-330-2" data-name="freepik--picture--inject-330" transform="translate(13.397 49.092)">
          <g id="freepik--frame--inject-330-2" data-name="freepik--frame--inject-330">
            <path id="Path_112736" data-name="Path 112736" d="M46.24,200.409l1.6.951,32.8-18.933-1.6-.958Z" transform="translate(-43.2 -141.72)" fill="#fafafa"/>
            <path id="Path_112737" data-name="Path 112737" d="M79.94,162.986,48.74,181V148.324L79.946,130.33Z" transform="translate(-44.104 -123.236)" fill="#fff"/>
            <path id="Path_112738" data-name="Path 112738" d="M82.843,120.68,44,143.1v41.506l38.83-22.42Zm-3.014,39.795-32.8,18.914V144.836l32.8-18.933Z" transform="translate(-42.391 -119.748)" fill="#f0f0f0"/>
            <path id="Path_112739" data-name="Path 112739" d="M99.2,163.412l-1.6-.958.006-32.656,1.6-.939Z" transform="translate(-61.764 -122.704)" fill="#e0e0e0"/>
            <path id="Path_112740" data-name="Path 112740" d="M81.932,120.152l-1.622-.932L41.48,141.64l1.622.932Z" transform="translate(-41.48 -119.22)" fill="#fafafa"/>
            <path id="Path_112741" data-name="Path 112741" d="M41.48,154.33l1.622.932v41.512l-1.622-.926Z" transform="translate(-41.48 -131.91)" fill="#e0e0e0"/>
          </g>
          <g id="freepik--land--inject-330-2" data-name="freepik--land--inject-330" transform="translate(5.856 20.344)">
            <path id="Path_112742" data-name="Path 112742" d="M79.417,169.515l-28.767,16.6v-8.3l7.19-16.609,4.483,4.151-1.609,6.96,9.929-21.238,8.774,10.127Z" transform="translate(-50.65 -151.08)" fill="#f0f0f0"/>
            <path id="Path_112743" data-name="Path 112743" d="M67.3,154.216a4.713,4.713,0,0,0-2.126,3.691c0,1.354.958,1.916,2.133,1.226a4.7,4.7,0,0,0,2.126-3.684C69.429,154.088,68.471,153.539,67.3,154.216Z" transform="translate(-55.898 -152.109)" fill="#f0f0f0"/>
          </g>
        </g>
      </g>
    </g>
    <g id="freepik--Shadows--inject-330" transform="translate(19.036 190.975)">
      <ellipse id="freepik--Shadow--inject-330" cx="28.135" cy="16.245" rx="28.135" ry="16.245" transform="translate(205.714 41.8)" fill="#e0e0e0"/>
      <ellipse id="freepik--shadow--inject-330-2" data-name="freepik--shadow--inject-330" cx="80.042" cy="46.212" rx="80.042" ry="46.212" transform="translate(42.117)" fill="#e0e0e0"/>
      <path id="freepik--shadow--inject-330-3" data-name="freepik--shadow--inject-330" d="M23.723,378.982l5.383-3.142a2.612,2.612,0,0,1,2.363,0l22.049,12.771a.722.722,0,0,1,0,1.367l-.926.53,12.388,7.152,15.236-8.793a4.144,4.144,0,0,1,2.082-.556,4.259,4.259,0,0,1,3.55,1.871l17.183,25.8a2.4,2.4,0,0,1,.409,2.554,1.916,1.916,0,0,1-1.813.92,4.274,4.274,0,0,1-.907-.109L53.211,408.8c-1.641-.364-2.011-1.239-2.088-1.724s0-1.437,1.475-2.28l9.042-5.217-12.375-7.133-1.13.639a2.625,2.625,0,0,1-2.369,0L23.723,380.348a.722.722,0,0,1,0-1.367Z" transform="translate(-23.233 -317.86)" fill="#e0e0e0"/>
    </g>
    <g id="freepik--Trowel--inject-330" transform="translate(23.904 231.433)">
      <g id="freepik--trowel--inject-330-2" data-name="freepik--trowel--inject-330" transform="translate(0)">
        <path id="Path_112744" data-name="Path 112744" d="M30.873,355.047a2.42,2.42,0,0,0,1.054,2.248L50.7,368a4.892,4.892,0,0,0,4.834-8.506L36.773,348.8a2.4,2.4,0,0,0-2.471.236,7.663,7.663,0,0,0-3.429,6.015Z" transform="translate(-30.859 -348.559)" fill="#f28a29"/>
        <path id="Path_112745" data-name="Path 112745" d="M30.872,355.886a7.733,7.733,0,0,1,2.184-5.006c-1.4,2.005-1.6,3.921,2.618,6.386s13.556,7.79,15.364,8.812,5.274,2.126,7.075-1.092a4.725,4.725,0,0,1-.6,2.1,4.968,4.968,0,0,1-6.813,1.75L31.926,358.153a2.42,2.42,0,0,1-1.054-2.267Z" transform="translate(-30.858 -349.398)" opacity="0.15"/>
        <path id="Path_112746" data-name="Path 112746" d="M70.057,372.173a3.7,3.7,0,0,0-1.66,2.912,1.169,1.169,0,0,0,.511,1.086l1.411.792,2.337-4.112-1.4-.785a1.162,1.162,0,0,0-1.194.109Z" transform="translate(-44.424 -357.013)" fill="#455a64"/>
        <path id="Path_112747" data-name="Path 112747" d="M70.65,376.332c0,1.066.76,1.494,1.679.958a3.691,3.691,0,0,0,1.654-2.912c0-1.066-.76-1.494-1.679-.951A3.691,3.691,0,0,0,70.65,376.332Z" transform="translate(-45.241 -357.462)" fill="#3e3e3e"/>
        <path id="Path_112748" data-name="Path 112748" d="M71.938,376.617A2.363,2.363,0,0,1,73,374.746a.722.722,0,0,1,.8-.051l3.448,1.992a10.217,10.217,0,0,1,5.108,8.812v2.963a9.38,9.38,0,0,0,4.655,8.1l2.784,1.6-1.52,2.631-2.784-1.609A12.42,12.42,0,0,1,79.3,388.462V385.5a7.152,7.152,0,0,0-3.57-6.175l-3.474-2.005h0A.76.76,0,0,1,71.938,376.617Z" transform="translate(-45.705 -357.971)" fill="#455a64"/>
        <path id="Path_112749" data-name="Path 112749" d="M69.433,411.6l17.343-5.587,10.281-10.364a3.282,3.282,0,0,1,4.31,1.009l17.19,25.8a2.228,2.228,0,0,1,.441,1.162v.92c0,.639-.639.958-1.711.709L69.758,414.7c-.881-.192-1.328-.562-1.328-1v-.932C68.43,412.4,68.756,411.987,69.433,411.6Z" transform="translate(-44.438 -365.43)" fill="#3e3e3e"/>
        <path id="Path_112750" data-name="Path 112750" d="M97.052,395.652,86.771,406.015,69.441,411.6c-1.45.836-1.277,1.813.338,2.177l47.489,10.549c1.635.358,2.209-.479,1.277-1.871l-17.177-25.8A3.282,3.282,0,0,0,97.052,395.652Z" transform="translate(-44.446 -365.428)" fill="#455a64"/>
        <path id="Path_112751" data-name="Path 112751" d="M118.75,430.255a1.654,1.654,0,0,1-1.494.179l-47.5-10.549c-1.641-.364-1.788-1.341-.338-2.177l17.343-5.587,31.991,18.135Z" transform="translate(-44.434 -371.533)" fill="#37474f"/>
      </g>
    </g>
    <g id="freepik--Pot--inject-330" transform="translate(224.77 201.69)">
      <g id="freepik--pot--inject-330-2" data-name="freepik--pot--inject-330">
        <path id="Path_112752" data-name="Path 112752" d="M349.86,340.455l50.58-.045L395.223,362.2h0c-.4,2.631-2.331,5.2-5.811,7.209-7.861,4.547-20.619,4.553-28.486,0-3.748-2.165-5.689-4.968-5.868-7.8Z" transform="translate(-347.027 -315.87)" fill="#37474f"/>
        <path id="Path_112753" data-name="Path 112753" d="M356.2,355.395a21.845,21.845,0,0,1-3.033-2.12l-2.854-11.641a20.37,20.37,0,0,0,5.108,4.068c10.67,6.149,27.771,6.3,38.8.473l-1.277-5.191.39-.543h7.26l-5.211,21.775h0c-.4,2.631-2.331,5.2-5.811,7.209-5.6,3.237-13.678,4.163-20.708,2.79,12.6.932,21.245-4.585,22.541-9.661.511-2.031,1.411-6.513,1.411-6.513C382.3,361.384,366.261,361.186,356.2,355.395Z" transform="translate(-347.189 -315.881)" opacity="0.1"/>
        <path id="Path_112754" data-name="Path 112754" d="M345.619,320.121a10.67,10.67,0,0,0,1.692,3.927,18.71,18.71,0,0,0,6.347,5.632c10.983,6.334,28.792,6.322,39.769,0a18.7,18.7,0,0,0,6.341-5.638,10.817,10.817,0,0,0,1.679-3.934h0c.977-4.764-1.711-9.732-8.046-13.378-10.983-6.341-28.786-6.328-39.763,0C347.318,310.39,344.642,315.358,345.619,320.121Z" transform="translate(-345.423 -301.98)" fill="#455a64"/>
        <path id="Path_112755" data-name="Path 112755" d="M347.419,334.31a18.71,18.71,0,0,0,6.347,5.632c10.983,6.334,28.792,6.322,39.769,0a18.7,18.7,0,0,0,6.341-5.638,10.817,10.817,0,0,0,1.679-3.933h0l-1.245,8.576c-.568,3.448-3.135,6.807-7.714,9.457-10.466,6.041-27.419,6.053-37.892,0-4.521-2.612-7.088-5.926-7.707-9.329l-.064-.441-1.213-8.25A10.67,10.67,0,0,0,347.419,334.31Z" transform="translate(-345.53 -312.242)" fill="#37474f"/>
        <path id="Path_112756" data-name="Path 112756" d="M359.611,310.153c9.15-5.287,23.984-5.3,33.134,0,5.179,2.988,7.426,7.024,6.75,10.926-.517,2.995-2.771,5.907-6.737,8.2-9.144,5.294-23.978,5.3-33.134,0-3.965-2.292-6.219-5.2-6.743-8.186C352.191,317.19,354.433,313.154,359.611,310.153Z" transform="translate(-348.075 -303.499)" fill="#37474f"/>
        <path id="Path_112757" data-name="Path 112757" d="M366.24,341.663c9.061,4.278,22.349,4.036,30.963-.709C388.149,336.7,374.848,336.919,366.24,341.663Z" transform="translate(-352.947 -314.972)" fill="#3e3e3e"/>
      </g>
    </g>
    <g id="freepik--Soil--inject-330" transform="translate(234.528 239.502)">
      <g id="freepik--soil--inject-330-2" data-name="freepik--soil--inject-330">
        <path id="Path_112758" data-name="Path 112758" d="M434.107,379.755a5.2,5.2,0,0,0-3.6-1.373,5.511,5.511,0,0,0-2.254-7.292,4.234,4.234,0,0,0-3.1-.172,10.568,10.568,0,0,0-2.612-6.718,9.17,9.17,0,0,0-9.265-2.663,7.969,7.969,0,0,0-5.53,7.663,5.46,5.46,0,0,0-7.873,6.009c-.492-2.209-6.028-1.807-7.286-1.034a5.032,5.032,0,0,0-2.35,3.831,4.847,4.847,0,0,0-7.26,4.847,7.4,7.4,0,0,0-4.891-.07,4.132,4.132,0,0,0-2.739,3.78,5.172,5.172,0,0,0-2.8.568,1.942,1.942,0,0,0-.811,2.484,2.554,2.554,0,0,0,1.718.958,9.846,9.846,0,0,0,4.029,0c.677,2.822,4.349,3.94,5.6,4.1,5.536.709,7.324-1.111,8.537-2.65,1.424,2.554,4.776,4.036,7.7,4.246a8.339,8.339,0,0,0,7.541-4.406c.5,3.263,5.338,4.738,8.767,4.872,2.554.1,6.188-1.788,6.488-4.623,3.333,2.209,10.1.377,9.374-4.336C435.486,387.028,437.178,382.717,434.107,379.755Z" transform="translate(-364.616 -361.195)" fill="#b16668"/>
        <path id="Path_112759" data-name="Path 112759" d="M434.1,385.142a5.2,5.2,0,0,0-3.6-1.373,5.511,5.511,0,0,0-2.254-7.292,3.474,3.474,0,0,0-1.456-.377,4.649,4.649,0,0,1-2.235,7.771c2.4.192,3.831,3.41,2.554,5.46a4.527,4.527,0,0,1-6.334,1,3.584,3.584,0,0,1-1.462,3.774c-1.264.69-3.237-.294-3.046-1.724a6.191,6.191,0,0,1-9.119-.779,8.11,8.11,0,0,1-5.9,4.47,9.374,9.374,0,0,1-7.26-1.839,1.207,1.207,0,0,0-2,0,9.674,9.674,0,0,1-12.573.109,1.667,1.667,0,0,0-.939-.543,1.711,1.711,0,0,0-.868.3,6.188,6.188,0,0,1-5.236.4,5.331,5.331,0,0,1-.837-.46,1.5,1.5,0,0,0,.179.99,2.554,2.554,0,0,0,1.718.958,9.846,9.846,0,0,0,4.029,0c.677,2.822,4.349,3.94,5.6,4.1,5.536.709,7.324-1.111,8.537-2.65,1.424,2.554,4.776,4.036,7.7,4.246a8.339,8.339,0,0,0,7.541-4.406c.5,3.263,5.338,4.738,8.767,4.872,2.554.1,6.188-1.788,6.488-4.623,3.333,2.209,10.1.377,9.374-4.336C435.483,392.415,437.175,388.1,434.1,385.142Z" transform="translate(-364.613 -366.583)" fill="#9a4a4d"/>
        <path id="Path_112760" data-name="Path 112760" d="M367.31,410.819a2.061,2.061,0,0,0-.709.268,2.982,2.982,0,1,0-.824,2.752,2.12,2.12,0,1,0,1.533-3.02Z" transform="translate(-360.704 -378.377)" fill="#b16668"/>
      </g>
    </g>
    <g id="freepik--Character--inject-330" transform="translate(62.771 26.981)">
      <g id="freepik--character--inject-330-2" data-name="freepik--character--inject-330">
        <g id="freepik--Bottom--inject-330" transform="translate(0 161.714)">
          <path id="Path_112761" data-name="Path 112761" d="M228.861,385.172l12.822-17.362,16.5,15.242-28.275,23.965s-11.175-3.4-11.852-10.032S225.336,386.59,228.861,385.172Z" transform="translate(-137.373 -312.78)" fill="#f0997a"/>
          <path id="Path_112762" data-name="Path 112762" d="M204.534,400.35c-3.64.1-5.249,1.047-6.558,3.985s-.971,6.073-2.452,10.14-3.748,5.709-6.028,10.977-2.331,14.61.364,20.581,5.332,8.812,12.484,9.016Z" transform="translate(-126.455 -324.541)" fill="#3e3e3e"/>
          <path id="Path_112763" data-name="Path 112763" d="M219.5,394.87l-1.552,2a17.745,17.745,0,0,0,4.47,9.061c3.831,4.131,5.856,4.259,5.856,4.259l1.277-1.073s.524.7-1.5,2.318a31.372,31.372,0,0,0-6.839,6.884c-2.886,3.882-6.386,13.671-7.931,20.938s-1.513,12.675-7.273,13.691-10.268-5.3-12.394-10.74-1.813-12.988-.1-18.128,6.219-7.8,6.635-14.1c.307-4.629,1.833-8.94,4.151-10.766s6.386-1.6,9.291-2.593S218.545,394.046,219.5,394.87Z" transform="translate(-128.014 -322.477)" fill="#455a64"/>
          <path id="Path_112764" data-name="Path 112764" d="M212.373,465.393c-2.2-7.778-13.748-12.177-20.274-10.306a24.9,24.9,0,0,0,1.475,8.78c2.126,5.44,6.628,11.749,12.394,10.74C210.463,473.816,211.428,470.336,212.373,465.393Z" transform="translate(-128.004 -344.171)" fill="#fafafa"/>
          <path id="Path_112765" data-name="Path 112765" d="M228.006,411.409c2.024-1.622,1.5-2.318,1.5-2.318l-1.277,1.073s-2-.128-5.856-4.259a17.746,17.746,0,0,1-4.47-9.061l1.584-1.967c-.958-.792-3.008.754-5.945,1.75s-6.973.779-9.291,2.593a10.121,10.121,0,0,0-2.912,4.559l18.275,4.706s-3.161,7.714-5.606,14.974c-3,8.94-3.244,20.491-8.537,23.256-5.108,2.669-12.548-8.678-13.122-17.541a27.667,27.667,0,0,0,1.22,13.039c2.126,5.44,6.628,11.749,12.394,10.74s5.747-6.43,7.273-13.691,5.045-17.056,7.931-20.938a31.373,31.373,0,0,1,6.839-6.915Z" transform="translate(-127.999 -322.484)" opacity="0.1"/>
          <path id="Path_112766" data-name="Path 112766" d="M221.228,455.242a9.384,9.384,0,0,0-.888-1.654,14.048,14.048,0,0,0-2.267-2.759A14.853,14.853,0,0,0,211.356,447c-.23-.045-.287.421-.134.524a42.4,42.4,0,0,1,6.022,4.131,14.528,14.528,0,0,1,2.056,2.369,11.709,11.709,0,0,1,.8,1.4,3.435,3.435,0,0,0,.99,1.494.179.179,0,0,0,.2-.032C221.707,456.449,221.419,455.753,221.228,455.242Z" transform="translate(-134.886 -341.401)" fill="#fafafa"/>
          <path id="Path_112767" data-name="Path 112767" d="M223.978,447.121a12.234,12.234,0,0,0-3.933-5.166,17.351,17.351,0,0,0-2.414-1.654,12.685,12.685,0,0,0-1.328-.638,6.452,6.452,0,0,0-1.552-.364c-.192-.032-.287.37-.134.46.894.511,1.788,1.047,2.676,1.577a16.174,16.174,0,0,1,2.375,1.737,19.65,19.65,0,0,1,1.96,1.967c.7.83,1.315,1.724,2,2.554C223.863,447.888,224.036,447.287,223.978,447.121Z" transform="translate(-136.116 -338.619)" fill="#fafafa"/>
          <path id="Path_112768" data-name="Path 112768" d="M226.336,435.1a13.225,13.225,0,0,0-2.209-2.49,15.918,15.918,0,0,0-2.912-2.043,7.528,7.528,0,0,0-3.059-1.2c-.262,0-.332.5-.16.639a27.224,27.224,0,0,0,2.95,1.731,18.339,18.339,0,0,1,2.631,1.916,12.312,12.312,0,0,1,1.916,2.1c.262.37.485.766.728,1.149a18.764,18.764,0,0,0,.971,1.622c.16.2.345-.121.351-.262A5.37,5.37,0,0,0,226.336,435.1Z" transform="translate(-137.331 -335.03)" fill="#fafafa"/>
          <path id="Path_112769" data-name="Path 112769" d="M231.207,426.452c-.683-.811-1.392-1.609-2.146-2.35a15.644,15.644,0,0,0-2.49-2.005,5.894,5.894,0,0,0-2.765-1.117c-.268,0-.306.479-.121.607.837.536,1.73,1,2.554,1.577a19.882,19.882,0,0,1,2.248,1.954c.639.639,1.239,1.277,1.813,1.967a8.4,8.4,0,0,1,.8,1.028,3.868,3.868,0,0,1,.262.543c.1.268.281.492.4.753s.281.281.421.083C232.9,428.451,231.884,427.251,231.207,426.452Z" transform="translate(-139.38 -331.998)" fill="#fafafa"/>
          <path id="Path_112770" data-name="Path 112770" d="M209.546,282.1s48.932-1.916,67.686,1.967c19.157,3.991,15.1,25.382,9.342,34.252-13,20.025-40.682,38.575-40.682,38.575s-14.348-5.057-15.83-15.5l8.5-12.975L214.2,331.533l-10.172-10.638-5.108-5.2Z" transform="translate(-130.47 -281.63)" fill="#263238"/>
          <path id="Path_112772" data-name="Path 112772" d="M246.186,376.39s9.233,6.251,13.627,8.525a77.4,77.4,0,0,0,7.509,3.448l-5.7,16.877L238,397.615Z" transform="translate(-144.596 -315.881)" fill="#ffbda7"/>
          <path id="Path_112773" data-name="Path 112773" d="M278.7,424.14s4.649,2.752,5.913,3.193,4.47,1.015,6.718,2.248,11.015,6.13,16.411,6.7,14.814-.7,17.911-9.47Z" transform="translate(-159.307 -333.14)" fill="#3e3e3e"/>
          <path id="Path_112774" data-name="Path 112774" d="M273.634,391.66c1.66.894,1.98,6.979.607,10.619-1.054,2.81-4.119,7.056-5.887,6.826l-1.673-.536s0,1.207,2.707,1.871,10.913,3.486,14.048,4.349,9.419,4.751,13.441,6.066,7.8,3.257,14.885,1.277,12.42-8.825,10.376-15.249-8.735-8.486-14.316-9.5-15.4-.594-21.487-2.28a67.613,67.613,0,0,1-11.82-4.3,3.1,3.1,0,0,0-2.995-.16Z" transform="translate(-154.962 -320.927)" fill="#455a64"/>
          <path id="Path_112775" data-name="Path 112775" d="M316.756,401.943a13.2,13.2,0,0,0-3.161,5.894,19.84,19.84,0,0,0-1.111,7.305c0,.236.351.677.543.287a11.494,11.494,0,0,0,.8-3.154c.2-1.086.389-2.177.639-3.25a22.431,22.431,0,0,1,.99-2.988,26.354,26.354,0,0,1,1.826-3.333C317.5,402.378,317.165,401.56,316.756,401.943Z" transform="translate(-171.501 -325.081)" fill="#fafafa"/>
          <path id="Path_112776" data-name="Path 112776" d="M308.943,401.793c-.051-.224-.23-.53-.5-.485-.543.1-.728.517-.99.964s-.536.958-.766,1.456a20.739,20.739,0,0,0-1.079,2.937,24.658,24.658,0,0,0-.677,3.027,6.816,6.816,0,0,0,.064,3.512c.064.172.326.511.524.243.639-.83.5-1.916.639-2.925a21.021,21.021,0,0,1,.664-3.027,23.661,23.661,0,0,1,1.1-2.848c.223-.485.453-.971.7-1.443A1.833,1.833,0,0,0,308.943,401.793Z" transform="translate(-168.714 -324.886)" fill="#fafafa"/>
          <path id="Path_112777" data-name="Path 112777" d="M300.064,400.163a4.016,4.016,0,0,0-.894,1.341c-.224.428-.441.856-.639,1.277a24.04,24.04,0,0,0-1.022,2.995,13.677,13.677,0,0,0-.753,6.073c.051.287.466.734.639.281a13.41,13.41,0,0,0,.639-2.842,25.015,25.015,0,0,1,.683-2.893,27.185,27.185,0,0,1,.983-2.695c.179-.428.358-.862.556-1.277a5.249,5.249,0,0,0,.575-1.45C300.869,400.585,300.479,399.831,300.064,400.163Z" transform="translate(-165.793 -324.444)" fill="#fafafa"/>
          <path id="Path_112778" data-name="Path 112778" d="M292.324,397.438a15.964,15.964,0,0,0-3.736,12.247c0,.2.243.166.294,0,.581-1.916,1.079-3.908,1.724-5.83s1.526-3.774,2.331-5.638C293.084,397.878,292.739,396.978,292.324,397.438Z" transform="translate(-162.842 -323.442)" fill="#fafafa"/>
          <path id="Path_112779" data-name="Path 112779" d="M342.85,411.307c-1.616-5.108-6.156-7.433-10.747-8.7-6.9,3.4-9.112,21.123-7.663,24.629a19.157,19.157,0,0,0,8.014-.683C339.555,424.57,344.894,417.731,342.85,411.307Z" transform="translate(-175.687 -325.358)" fill="#fafafa"/>
          <path id="Path_112780" data-name="Path 112780" d="M311.749,430.474c5.606-1.577,10.115-6.188,10.74-11.226a14.521,14.521,0,0,1-7.822,7.324c-5.907,2.395-18.212-1.756-23.511-4.911-4.3-2.554-11.494-4.47-18.371-8.212-1.373,2.165-3.193,4.144-4.432,3.985l-1.673-.536s0,1.207,2.707,1.871,10.913,3.487,14.048,4.349,9.419,4.751,13.441,6.066S304.661,432.46,311.749,430.474Z" transform="translate(-154.962 -329.276)" opacity="0.1"/>
          <path id="Path_112781" data-name="Path 112781" d="M198.27,343.728C186.942,334.354,170.532,319.5,163.252,316l-.568-.262c5.108-8.161,8.857-15.536,8.116-33.447l-75.394-.147s-6.386,20.7-2.337,34.124c4.834,15.906,15.791,22.349,27.943,27.771,12.586,5.632,27.253,8.052,27.253,8.052,3.142,2.829,7.726,5.191,13.563,6.9,7.362,2.165,21.264,5,29.29,7.12C197.261,360.758,199.88,345.063,198.27,343.728Z" transform="translate(-91.725 -281.814)" fill="#263238"/>
          <g id="Group_72310" data-name="Group 72310" transform="translate(33.63 16.864)" opacity="0.3">
            <path id="Path_112783" data-name="Path 112783" d="M264.079,326.266a176.052,176.052,0,0,0-12.828,15.012l6.226-.785c9.674-15.249,11.928-19.8,23.92-25.453C281.4,315.014,273.267,316.521,264.079,326.266Z" transform="translate(-183.014 -310.57)"/>
            <path id="Path_112784" data-name="Path 112784" d="M175.208,384a9.48,9.48,0,0,0,.639,4.515c1.6.255,2.554.383,2.554.383l.07.057A23.3,23.3,0,0,1,175.208,384Z" transform="translate(-155.509 -335.496)"/>
            <path id="Path_112785" data-name="Path 112785" d="M193.9,333.461c4.77,3.614,8.078,6.66,8.078,6.66l4.24-.543s-8.78-7.177-15.466-12.554c-.913-.741-4.138-3.333-4.955-4.074a34.656,34.656,0,0,0,3.116-14.91,43.471,43.471,0,0,1-5.326,13.952c-2.778-1.45-5.236-1.711-9.578-1.82-7.6-.185-29.622-.639-29.622-.639s20.836,1.916,31.5,3.882a22.121,22.121,0,0,1,5.843,1.686C187.243,327.893,191.33,331.507,193.9,333.461Z" transform="translate(-144.39 -308.04)"/>
          </g>
        </g>
        <g id="freepik--Top--inject-330" transform="translate(0.331)">
          <g id="freepik--top--inject-330-2" data-name="freepik--top--inject-330">
            <g id="freepik--Chest--inject-330" transform="translate(0 72.763)">
              <path id="Path_112786" data-name="Path 112786" d="M189.279,146.15c11.392,2.286,18.16,8.046,15.8,23.524s-11.654,54.1-11.654,54.1l-23.09-6.449Z" transform="translate(-120.471 -143.71)" fill="#d97c25"/>
              <path id="Path_112787" data-name="Path 112787" d="M212.9,244.014l-12.19-7.7s-10.683-2.139-14.655,6.309-2.011,11.494-2.011,11.494l20.229,6.411Z" transform="translate(-125.25 -176.212)" fill="#ffbda7"/>
              <path id="Path_112788" data-name="Path 112788" d="M170.457,201.8c11.845-8.2,10.951-21.111,9.38-26.513-3.154-10.823-18.786-30.523-18.786-30.523a115.747,115.747,0,0,0-23.927-2.439c-11.545.064-24.686,6.092-24.686,6.092,2.018,5.5,6.047,11.845,4.47,18.026-3.723,14.687-16.749,23.147-16.749,23.147s1.43,12.9,1.635,16.794c.14,2.644-.109,9.1-2.388,13.582-4.374,8.6-6.168,17.848-7.024,20.625a3.039,3.039,0,0,0,1.367,3.531c24.98,14.457,66.665,12.324,79.436-6.168-1.041-6.258-3.34-13.224-4.048-19.157S168.618,210.961,170.457,201.8Z" transform="translate(-92.242 -142.329)" fill="#f28a29"/>
              <path id="Path_112789" data-name="Path 112789" d="M191.195,183.81a90.037,90.037,0,0,1,2.465,20.025,64.706,64.706,0,0,1-.741,10.013c-.268,1.654-.67,3.25-1,4.968s-.485,3.378-.639,5.07c-.543,6.775-.683,13.544-.639,20.312.057,3.384.14,6.769.4,10.153.192,1.718.5,3.346.556,5.038s.14,3.455-.817,4.879c1.041-1.379,1.041-3.225,1.111-4.885s-.185-3.416-.268-5.07c-.14-3.359-.121-6.743-.07-10.115.121-6.743.255-13.505.881-20.2.14-1.679.326-3.346.581-4.993s.69-3.3.945-4.987a55.612,55.612,0,0,0,.581-10.217,76.32,76.32,0,0,0-3.346-19.987Z" transform="translate(-127.807 -157.323)" fill="#d97c25"/>
              <path id="Path_112790" data-name="Path 112790" d="M172.483,144.769s4.91,6.188,9.783,13.531c-13.869,1.475-39.009,4.393-55.509,6.009.4-5.99-1.149-11.149-2.886-15.887,0,0,13.141-6.028,24.686-6.092A115.749,115.749,0,0,1,172.483,144.769Z" transform="translate(-103.674 -142.329)" fill="#f28a29"/>
              <path id="Path_112791" data-name="Path 112791" d="M168.553,231.054s-7.139,6-19.035,1.488-12.471-14.272-12.471-14.272-3.11,11.8,11.124,17.132C162.187,240.658,168.553,231.054,168.553,231.054Z" transform="translate(-108.333 -169.778)" fill="#d97c25"/>
            </g>
            <g id="freepik--Head--inject-330" transform="translate(12.291)">
              <path id="Path_112792" data-name="Path 112792" d="M133.348,29.829a7.548,7.548,0,0,0-2.976,4.47,11.922,11.922,0,0,0-14.61,16.826,8.449,8.449,0,0,0-4.157,5.108c-.492,2.216.639,4.827,2.778,5.5a7.771,7.771,0,0,0,7.535,12.7c.677-.153,1.315-.268,2.018-.492a11.353,11.353,0,0,0,.715,1.45,8.94,8.94,0,0,0,15.325.581,1.041,1.041,0,0,1,1.686-.364A8.2,8.2,0,0,0,153,68.947c0,.23,3.193-1.143,3.435-1.335a7.8,7.8,0,0,0,2.49-3.129,6.922,6.922,0,0,0,.172-4.77,8.939,8.939,0,0,0-1.047-2.216c-.089-.147-1.207-1.533-1.367-1.456,2.056-1.015,2.925-3.646,2.465-5.887A10.732,10.732,0,0,0,155.4,44.49a5.434,5.434,0,0,0,2.388-6.564,7.4,7.4,0,0,0-1.52-2.267,10.792,10.792,0,0,0-4.719-3.052,7.893,7.893,0,0,0-5.555.3c-.364-2.586-3.257-3.78-5.511-4.259a9.138,9.138,0,0,0-7.139,1.181Z" transform="translate(-111.491 -28.379)" fill="#37474f"/>
              <path id="Path_112793" data-name="Path 112793" d="M158.846,42.23a11.551,11.551,0,0,0-5.46,1.7c-2.988,1.673-5.747,4.336-6.162,7.733a3.831,3.831,0,0,0,.549,2.771,4.2,4.2,0,0,0,2.324,1.392,12.132,12.132,0,0,0,4.847.307,11.309,11.309,0,0,0,7.082-3.538,8.505,8.505,0,0,0,1.98-7.062C163.577,43.232,161.017,42.211,158.846,42.23Z" transform="translate(-124.384 -33.385)" fill="#f28a29"/>
              <path id="Path_112794" data-name="Path 112794" d="M202.362,56.949c-1.794-4.125-4.47-5.313-6.583-5.619-2.043-4.189-10.938-9.508-15.325-10.587-16.947-4.163-23.939,3.627-25.408,6.756-8.467-.262-17.765,12.918-11.89,30.408,2.554,7.573,6.826,16.4,6.858,20.523h10.051a20.3,20.3,0,0,1,15-14.572c12.356-2.905,19.323-4.808,21.443-6.96C204.712,70.665,204.5,61.828,202.362,56.949Z" transform="translate(-122.27 -32.415)" fill="#37474f"/>
              <path id="Path_112795" data-name="Path 112795" d="M196.664,76.688c0,1.839-.083,5.108-.217,6.935a70.944,70.944,0,0,1-1.475,11.207c-3.627,15.1-8.116,16.206-10.779,17.241-2.241.868-5.677,1.277-10.434.319l-1.571,7.9s5.568,8.059,1.277,20.791c-5.606-3.953-9.859-10.887-9.859-10.887-9.425-7.9-15.67-13.071-15.67-13.071l4.291-18.461s-4.719,2.676-8.64-2.669c-3.039-4.151-2.452-11.443,1.5-13.735s7.956-.639,9.31,4.591c.964,3.742,4.042,1.4,4-2.5s4.47-4.681,6.022-6.43c5.108-5.645.364-7.529,6.047-11.239,3.154-2.056,9.578-1.475,14.048,2.956C188.529,66.331,196.734,66.343,196.664,76.688Z" transform="translate(-122.395 -41.81)" fill="#ffbda7"/>
              <path id="Path_112796" data-name="Path 112796" d="M190.3,114.82l7.988,3.563a4.214,4.214,0,0,1-5.632,2.471A4.732,4.732,0,0,1,190.3,114.82Z" transform="translate(-139.852 -59.623)" fill="#b16668"/>
              <path id="Path_112797" data-name="Path 112797" d="M190.19,119.232a4.534,4.534,0,0,0,2.516,3.091,4.036,4.036,0,0,0,2.6.23,3.57,3.57,0,0,0-5.108-3.32Z" transform="translate(-139.937 -61.092)" fill="#f28f8f"/>
              <path id="Path_112798" data-name="Path 112798" d="M194.164,94.3a2.235,2.235,0,1,1-1.916-2.554A2.267,2.267,0,0,1,194.164,94.3Z" transform="translate(-139.767 -51.277)" fill="#3e3e3e"/>
              <path id="Path_112799" data-name="Path 112799" d="M219.531,96.934a2.2,2.2,0,1,1-1.884-2.554,2.235,2.235,0,0,1,1.884,2.554Z" transform="translate(-148.966 -52.228)" fill="#3e3e3e"/>
              <path id="Path_112800" data-name="Path 112800" d="M193.427,81.527l-5.811,1.379a3.263,3.263,0,0,1,2.356-3.774,2.867,2.867,0,0,1,3.455,2.395Z" transform="translate(-138.985 -46.699)" fill="#3e3e3e"/>
              <path id="Path_112801" data-name="Path 112801" d="M221.172,88.426,216,85.546a2.771,2.771,0,0,1,3.9-1.315,3.269,3.269,0,0,1,1.277,4.2Z" transform="translate(-149.266 -48.439)" fill="#3e3e3e"/>
              <path id="Path_112802" data-name="Path 112802" d="M204.76,92.01l.275,14.393,7.726-2.248Z" transform="translate(-145.203 -51.378)" fill="#f0997a"/>
              <path id="Path_112803" data-name="Path 112803" d="M181.708,130.928c-9.259-2.395-16.6-8.059-18.007-14.048a11.757,11.757,0,0,0,3.384,9.674c4.84,5.179,14.048,7.369,14.048,7.369Z" transform="translate(-130.344 -60.368)" fill="#f0997a"/>
            </g>
            <path id="Path_112804" data-name="Path 112804" d="M173.434,164.888s-4-2.158-7.663-11.021c-1.788-4.31-5.919-7.414-10.038-11.494a39.635,39.635,0,0,1-6.3-8.014l.639-2.9s-1.782.211-3.3,2.8a42.513,42.513,0,0,1-5.274,6.322c.99,8.071,14.048,17,16.238,21.251,5.185-1.7,6.916-5.236,6.916-5.236S169.411,163.126,173.434,164.888Z" transform="translate(-110.047 -65.638)" fill="#d97c25"/>
            <path id="Path_112805" data-name="Path 112805" d="M190.894,140.05,189.47,147.2s2.331,6.385,2.4,11.309a40.867,40.867,0,0,1-1.1,9.482s2.235-5.415,2.829-7.663,5.159,1.66,5.159,1.66a31.762,31.762,0,0,0-1.111-9.719,33.562,33.562,0,0,0-3.448-8.582A11.423,11.423,0,0,0,190.894,140.05Z" transform="translate(-127.385 -68.742)" fill="#d97c25"/>
          </g>
          <g id="freepik--Arm--inject-330" transform="translate(0.42 78.855)">
            <path id="Path_112806" data-name="Path 112806" d="M113.615,153c-5.8,2.682-11,3.078-15.587,12.318-5.479,11.021,1.111,44.66,4.176,58.708,2.433,11.13,2.554,14.163,13.7,16.143,21.251,3.78,31.666,4.1,41.059,5.466l3.32-16.947-35.223-10.932-3.793-32.094S120.237,159.386,113.615,153Z" transform="translate(-93.992 -152.278)" fill="#ffbda7"/>
            <path id="Path_112807" data-name="Path 112807" d="M112.663,151.87c-7.19,2.184-17.879,6.258-19.514,19.565C91.233,186.805,101,226.881,101,226.881s10.7-11.622,22.988-9.578l.639.211s-1.711-22.579-3.02-36S118.563,157.981,112.663,151.87Z" transform="translate(-92.9 -151.87)" fill="#d97c25"/>
            <path id="Path_112808" data-name="Path 112808" d="M102.042,252.553a14.687,14.687,0,0,1,.709,3.831c0,1.52.409,2.369,2.414,3.091a5.44,5.44,0,0,1,1.443-3.4,12.457,12.457,0,0,1,3.161-2.318,46.022,46.022,0,0,1,9.214-3.614,32.827,32.827,0,0,1,10.249-.862,3.365,3.365,0,0,0-.128-4.163,3.634,3.634,0,0,1-.587-1.022,4.578,4.578,0,0,1,.153-1.7,3.352,3.352,0,0,0-1.277-3.084,5.613,5.613,0,0,0-1.916-.639c-4.942-.856-10.044.115-14.77,1.8a19.533,19.533,0,0,0-3.4,1.513,14.472,14.472,0,0,0-5.2,4.623,5.472,5.472,0,0,0-.587,4.425c.128.383.313.747.441,1.124Q102,252.361,102.042,252.553Z" transform="translate(-95.931 -183.129)" fill="#dd7412"/>
          </g>
          <g id="freepik--Hand--inject-330" transform="translate(51.459 113.734)">
            <g id="freepik--hand--inject-330-2" data-name="freepik--hand--inject-330" transform="translate(26.071 26.831)">
              <path id="Path_112809" data-name="Path 112809" d="M223.78,248.51a39.512,39.512,0,0,0,7.937,3.959c1.456.434,6.526,1.839,10.121,1.7s7.024.8,9.77,1.379,7.024.5,7.707,1.232.2,2.982-2.554,3.493a27.54,27.54,0,0,1-8.052.14c-2.031-.287-2.312-.275-1.277.524a55.105,55.105,0,0,0,7.024,4.342c1.117.364,6.283,2.912,8.1,3.193s6.175-.07,7.554,1.232,2.037,2.688-.8,2.982-6.028.434-6.028.434c2.139.945,3.467,1.1,5.747,2.171,2.771,1.309,3.889,2.765,3.48,4.278-.268,1.015-1.98.639-4.757.185a65.4,65.4,0,0,1-7.26-1.865s2.822,1.43,4.234,2.331a3.03,3.03,0,0,1,1.5,3.269c-.319.817-1.545.913-2.637.549s-2.369-.683-2.369-.683,0,.977-1.533,1.034a22.445,22.445,0,0,1-6.858-.964,69.939,69.939,0,0,0-6.82-2.35c-2.312-.549-10.8-2.88-14.252-5.319s-8.142-7.1-10.217-8.1-6.385-2.631-6.385-2.631-3.365-3.863,0-9.578a14.789,14.789,0,0,1,8.627-6.935Z" transform="translate(-213.658 -248.51)" fill="#ffbda7"/>
              <path id="Path_112810" data-name="Path 112810" d="M285.531,284.1a28.719,28.719,0,0,1-2.816-.67,9.726,9.726,0,0,1-2.682-1.207,49.023,49.023,0,0,1-4.693-3.352,49.883,49.883,0,0,1,5.006,2.886A36.543,36.543,0,0,0,285.531,284.1Z" transform="translate(-235.953 -259.484)" fill="#f0997a"/>
              <path id="Path_112811" data-name="Path 112811" d="M281.354,291.039a10.65,10.65,0,0,1-2.733-1.13c-.862-.473-1.679-1.022-2.49-1.577-1.622-1.086-3.193-2.209-4.751-3.442,1.737.913,3.41,1.916,5.064,2.988.824.53,1.616,1.092,2.426,1.622A29.216,29.216,0,0,0,281.354,291.039Z" transform="translate(-234.521 -261.659)" fill="#f0997a"/>
              <path id="Path_112812" data-name="Path 112812" d="M279.98,297.969a1.807,1.807,0,0,0-.236-1.028,2.21,2.21,0,0,0-.779-.7,9.363,9.363,0,0,0-2-.811c-.7-.224-1.386-.46-2.082-.7a9.226,9.226,0,0,1-2.031-.907c-1.245-.785-2.484-1.564-3.7-2.388l-1.826-1.226c-.6-.428-1.207-.843-1.794-1.277.639.332,1.277.7,1.916,1.047l1.916,1.092c1.277.728,2.51,1.494,3.755,2.26a9.177,9.177,0,0,0,1.916.907c.683.262,1.373.511,2.05.792a9.577,9.577,0,0,1,2.005.983,2.471,2.471,0,0,1,.753.849,1.7,1.7,0,0,1,.14,1.1Z" transform="translate(-232.407 -263.123)" fill="#f0997a"/>
              <path id="Path_112813" data-name="Path 112813" d="M257.463,270.76a14.687,14.687,0,0,1-6.9.077,15.148,15.148,0,0,1-3.308-1.1,9.042,9.042,0,0,1-2.822-2.011,13.219,13.219,0,0,0,3,1.609,21.105,21.105,0,0,0,3.25.958,24.756,24.756,0,0,0,3.359.485,21.88,21.88,0,0,0,3.423-.013Z" transform="translate(-224.78 -255.453)" fill="#f0997a"/>
            </g>
            <g id="freepik--hand--inject-330-3" data-name="freepik--hand--inject-330" transform="translate(0 40.477)">
              <path id="Path_112814" data-name="Path 112814" d="M182.938,269.88a102.123,102.123,0,0,1,13.3,3.308c2.286.626,11.424,2.075,14.227,4.361a62.671,62.671,0,0,0,10.485,6.539c1.66.626,6.813,3.008,7.854,3.11s5.913.045,7.509,1.571c1.341,1.277.639,2.778-.9,2.829-1.992.07-6.577.383-6.577.383l2.414,1.373a17.922,17.922,0,0,1,4.47,1.347c1.462.836,2.407,1.916,2.082,3.008s-1.756.926-3.889.639a33.228,33.228,0,0,1-4.9-.741c-1.386-.421-2.414-.639-2.414-.639,1.475.849,4.355,1.571,5.606,2.407a2.465,2.465,0,0,1,.971,3.193c-.511.971-6.111,0-6.111,0s.089,1.341-1.807,1.277a47.3,47.3,0,0,1-5.881-.415c-.741-.185-12.682-6.666-12.682-6.666a15.706,15.706,0,0,1,2.554,3.831c.568,1.609.1,3.193-.6,3.518s-1.481.089-3.423-1.111a74.671,74.671,0,0,0-6.488-3.985,14.894,14.894,0,0,1-6.973-6.13c-1.865-3.333-2.2-4.176-4.885-4.693-3.55-.677-14.048-2.222-14.048-2.222S174.056,271.023,182.938,269.88Z" transform="translate(-172.83 -269.88)" fill="#ffbda7"/>
              <path id="Path_112815" data-name="Path 112815" d="M209.49,275.06c1.916.409,3.9.741,5.836,1.156a44.52,44.52,0,0,1,5.747,1.59,10.153,10.153,0,0,1,2.7,1.367c.779.639,1.571,1.194,2.395,1.75,1.628,1.111,3.308,2.158,5.019,3.148.849.5,1.711.99,2.554,1.418l2.733,1.156,2.727,1.175a23.466,23.466,0,0,0,2.739,1.015,28.368,28.368,0,0,1,5.894.8,5.408,5.408,0,0,1,1.379.639,2.605,2.605,0,0,1,.958,1.175,1.43,1.43,0,0,1-.128,1.456,1.807,1.807,0,0,1-1.354.568,1.737,1.737,0,0,0,1.277-.639,1.277,1.277,0,0,0,.128-1.347,2.382,2.382,0,0,0-.939-1.054,5.458,5.458,0,0,0-1.335-.556,15.845,15.845,0,0,0-2.905-.466c-.99-.1-1.948-.077-2.982-.166a18.35,18.35,0,0,1-2.854-1l-2.746-1.149-2.759-1.143c-.913-.434-1.775-.92-2.644-1.418q-2.554-1.513-5.025-3.193c-.817-.568-1.622-1.162-2.4-1.788a10.748,10.748,0,0,0-2.554-1.347C217.255,276.784,213.321,276.075,209.49,275.06Z" transform="translate(-186.081 -271.752)" fill="#f0997a"/>
              <path id="Path_112816" data-name="Path 112816" d="M217.75,303.47s1.756,2.107,2.395,2.79,2.8,2.663,2.8,2.663h.16l.211.2c.817.447,2.905,1.577,5.147,2.771C225.834,310.494,217.75,303.47,217.75,303.47Z" transform="translate(-189.066 -282.021)" fill="#f0997a"/>
              <path id="Path_112817" data-name="Path 112817" d="M234.3,305.47a28.086,28.086,0,0,1,2.42,1.443c.779.517,1.533,1.1,2.286,1.616l2.395,1.443c.8.485,1.59.99,2.388,1.481h-.038c1.092.473,2.171.958,3.244,1.481a6.387,6.387,0,0,1,1.552.92,2.043,2.043,0,0,1,.753,1.6,2.018,2.018,0,0,0-.894-1.424,7.718,7.718,0,0,0-1.564-.76l-3.295-1.315h0c-.8-.492-1.6-.964-2.395-1.462s-1.577-.977-2.382-1.52-1.469-1.245-2.235-1.807S235.053,306.026,234.3,305.47Z" transform="translate(-195.048 -282.744)" fill="#f0997a"/>
              <path id="Path_112818" data-name="Path 112818" d="M242.25,301.94l5.217,4.259a40.993,40.993,0,0,0,4.24,2.356s1.022.23,2.414.639a33.5,33.5,0,0,0,4.9.741c1.718.224,2.969.377,3.563-.147-1.513.192-6.162-.983-7.726-1.341a32.1,32.1,0,0,1-6.13-2.407C247.62,305.388,242.25,301.94,242.25,301.94Z" transform="translate(-197.922 -281.468)" fill="#f0997a"/>
              <path id="Path_112819" data-name="Path 112819" d="M256.188,302.054c-.69-.275-1.386-.5-2.069-.779a11.01,11.01,0,0,1-1.022-.447c-.351-.172-.639-.383-.977-.562a29.593,29.593,0,0,1-3.621-2.516,30.51,30.51,0,0,1,3.927,2.043c.319.2.639.4.92.568s.639.338.958.517A12.529,12.529,0,0,1,256.188,302.054Z" transform="translate(-200.181 -279.954)" fill="#f0997a"/>
              <path id="Path_112820" data-name="Path 112820" d="M213.37,285.59a8.57,8.57,0,0,1,1.73,1.916,9.2,9.2,0,0,1,1.124,2.324,13.6,13.6,0,0,1,.485,5.108,40.28,40.28,0,0,0-1.022-4.91A14.949,14.949,0,0,0,213.37,285.59Z" transform="translate(-187.483 -275.558)" fill="#f0997a"/>
            </g>
            <path id="Path_112821" data-name="Path 112821" d="M214.286,277.987a8.857,8.857,0,0,0,15.645,4.591,6.826,6.826,0,0,0,12.637-2.663c1.015,1.558,3.665,2.433,6,2.158s4.668-2.324,4.642-4.674c0-1.718-.639-2.976-1.277-3.25A4.2,4.2,0,0,0,255.811,272a6.019,6.019,0,0,0,.089-5.313c-1.667-2.522-3.512-3.135-6.539-3.027.511-2.554-.153-5.785-2.426-7.107a6.117,6.117,0,0,0-7.107.517,5.108,5.108,0,0,0-2.925-4.47,8.186,8.186,0,0,0-7.2,0,4.962,4.962,0,0,0-2.72,3.071c-1.66-3.653-7.407-1.558-6.788,2.222a8.039,8.039,0,0,0-6.1-2.854,5.913,5.913,0,0,0-4.47,2.235,7.024,7.024,0,0,0-1.667,4.17,8.116,8.116,0,0,0,1.066,3.831,7.114,7.114,0,0,0-5.108,3.346,6.007,6.007,0,0,0,1.36,8.084C207.856,278.67,211.349,278.287,214.286,277.987Z" transform="translate(-183.712 -222.855)" fill="#b16668"/>
            <path id="Path_112822" data-name="Path 112822" d="M246.451,305.394a1.5,1.5,0,0,0-.5.192,2.146,2.146,0,1,0-1.724,2.554,2.209,2.209,0,0,0,1.13-.581,1.52,1.52,0,1,0,1.1-2.171Z" transform="translate(-197.723 -241.693)" fill="#b16668"/>
            <path id="Path_112823" data-name="Path 112823" d="M253.074,287.007c-1,2.037-3.244,2.363-5.051,2.248a7.017,7.017,0,0,1-6.028-4.317c.045,1.277-.038,5.926-4.853,7.062-3.7.868-6.928-2.554-7.075-4.949a7.024,7.024,0,0,1-8.742,2.069c-2.886-1.539-4.993-5.268-3.831-8.3a14.438,14.438,0,0,1-5.919.779c-2.222,0-4.61-.734-5.875-2.554a4.215,4.215,0,0,1-.639-3.154,6.921,6.921,0,0,0-1.175,1.443,6.007,6.007,0,0,0,1.36,8.084c2.58,1.967,6.066,1.616,9,1.315a8.857,8.857,0,0,0,15.645,4.591,6.826,6.826,0,0,0,12.662-2.688c1.015,1.558,3.665,2.433,6,2.158A5.471,5.471,0,0,0,253.074,287.007Z" transform="translate(-183.701 -231.575)" fill="#9a4a4d"/>
            <path id="Path_112824" data-name="Path 112824" d="M237.209,241.65c.1-1.622.064-4.668-2.925-6.341s-6.935-1.807-7.235-1.533.287,4.732,3.027,7.069C233.071,243.387,236.232,241.771,237.209,241.65Z" transform="translate(-192.402 -216.313)" fill="#f28a29"/>
            <path id="Path_112825" data-name="Path 112825" d="M237.209,241.65c.1-1.622.064-4.668-2.925-6.341s-6.935-1.807-7.235-1.533.287,4.732,3.027,7.069C233.071,243.387,236.232,241.771,237.209,241.65Z" transform="translate(-192.402 -216.313)" fill="#fff" opacity="0.2"/>
            <path id="Path_112826" data-name="Path 112826" d="M243.747,247.469a45.935,45.935,0,0,0-4.546-5.16,11.787,11.787,0,0,0-3.748-2.375c-.2-.064,0,.2.083.275a33.067,33.067,0,0,1,3.04,2.554,34.724,34.724,0,0,1,3.991,5.064.926.926,0,0,0,.983.421.492.492,0,0,0,.2-.779Z" transform="translate(-195.434 -218.576)" fill="#37474f"/>
            <path id="Path_112827" data-name="Path 112827" d="M249.475,229.536a10.085,10.085,0,0,1-.766-13.678c4.17-5.606,13.154-9.617,13.946-9.355s1.992,10.791-2.043,17.879C256.659,231.368,251.4,228.935,249.475,229.536Z" transform="translate(-199.419 -206.491)" fill="#f28a29"/>
            <path id="Path_112828" data-name="Path 112828" d="M249.475,229.536a10.085,10.085,0,0,1-.766-13.678c4.17-5.606,13.154-9.617,13.946-9.355s1.992,10.791-2.043,17.879C256.659,231.368,251.4,228.935,249.475,229.536Z" transform="translate(-199.419 -206.491)" fill="#fff" opacity="0.4"/>
            <path id="Path_112829" data-name="Path 112829" d="M245.387,248.446c-.1-4.47.971-8.007,2.695-12.905a39.2,39.2,0,0,1,2.471-5.523,24.362,24.362,0,0,1,4.234-5.747c.077-.057.639-.275.53-.121a62.773,62.773,0,0,0-3.378,6.149,35.961,35.961,0,0,0-2.331,5.945,57.229,57.229,0,0,0-2.478,12.477C247.053,249.577,245.4,249.213,245.387,248.446Z" transform="translate(-199.053 -212.854)" fill="#37474f"/>
            <path id="Path_112830" data-name="Path 112830" d="M250.017,260.3c-.249-.109-.485-.224-.741-.319a6.62,6.62,0,0,0-.868-.211,6.545,6.545,0,0,0-2.2,0,6.929,6.929,0,0,0-2.063.677,3.978,3.978,0,0,0-1.475,1.111,11.427,11.427,0,0,0-3.327-.6,11.185,11.185,0,0,0-2.554.243,4.885,4.885,0,0,0-2.184.817c-.077.07,0,.294.1.287.837-.051,1.647-.313,2.49-.383a12.589,12.589,0,0,1,2.248.038,11.686,11.686,0,0,1,4.342,1.354c.639.358,1.373-.639.683-1.015-.211-.109-.428-.192-.639-.294a4.47,4.47,0,0,1,.364-.332c.172-.134.351-.268.536-.389a6.481,6.481,0,0,1,2.222-.894,6.124,6.124,0,0,1,3.059.064C250.055,260.444,250.068,260.316,250.017,260.3Z" transform="translate(-195.146 -225.714)" fill="#9a4a4d"/>
          </g>
        </g>
      </g>
    </g>
    <g id="freepik--speech-bubble--inject-330" transform="translate(155.454 54.889)">
      <g id="freepik--speech-bubble--inject-330-2" data-name="freepik--speech-bubble--inject-330">
        <g id="freepik--speech-bubble--inject-330-3" data-name="freepik--speech-bubble--inject-330">
          <path id="Path_112831" data-name="Path 112831" d="M282.6,76.282a29.948,29.948,0,0,0-19.342,10.542l-2.063,2.759a29.967,29.967,0,0,0,47.074,36.787l2.177-2.656a29.974,29.974,0,0,0-27.866-47.432Z" transform="translate(-243.87 -73.52)" fill="#fff"/>
          <path id="Path_112832" data-name="Path 112832" d="M275.266,72.33a32.566,32.566,0,0,0-28.53,30.823l-8.908,4.77a1.916,1.916,0,0,0,.428,3.5l9.8,2.478a32.534,32.534,0,1,0,27.209-41.57ZM309,100.97a29.852,29.852,0,0,1-5.555,21.308l-2.178,2.656a29.967,29.967,0,0,1-47.074-36.787l2.043-2.759A29.974,29.974,0,0,1,309,100.97Z" transform="translate(-236.871 -72.084)" fill="#e0e0e0"/>
          <path id="Path_112833" data-name="Path 112833" d="M275.266,72.33a32.566,32.566,0,0,0-28.53,30.823l-8.908,4.77a1.916,1.916,0,0,0,.428,3.5l9.8,2.478a32.534,32.534,0,1,0,27.209-41.57ZM309,100.97a29.852,29.852,0,0,1-5.555,21.308l-2.178,2.656a29.967,29.967,0,0,1-47.074-36.787l2.043-2.759A29.974,29.974,0,0,1,309,100.97Z" transform="translate(-236.871 -72.084)" opacity="0.2"/>
          <path id="Path_112834" data-name="Path 112834" d="M315.991,102.406a29.852,29.852,0,0,1-5.555,21.308l-2.177,2.656a29.967,29.967,0,0,1-47.093-36.787l2.043-2.759a29.974,29.974,0,0,1,52.764,15.581Z" transform="translate(-243.842 -73.521)" fill="#fff" opacity="0.7"/>
        </g>
        <path id="Path_112835" data-name="Path 112835" d="M308.467,116.066c-.639-3.41,2.069-7.184,6.251-8.518s9.483.428,9.483.428a14.444,14.444,0,0,1-4.981,7.841C313.933,120.082,308.467,116.066,308.467,116.066Z" transform="translate(-262.716 -84.722)" fill="#f28a29"/>
        <path id="Path_112836" data-name="Path 112836" d="M291.076,112.128c2.676-3.544,2.554-9.929-1.526-13.818S277.506,94,277.506,94a20.536,20.536,0,0,0,1.322,12.484C282.506,114.331,291.076,112.128,291.076,112.128Z" transform="translate(-251.403 -80.006)" fill="#f28a29"/>
        <path id="Path_112837" data-name="Path 112837" d="M298.192,130.611l1.379.16-.3-2.126c-.275-1.743-.639-3.48-1.028-5.191h0a18.136,18.136,0,0,1,.524-2.26,16.432,16.432,0,0,1,1.833-4.119,13.212,13.212,0,0,1,2.963-3.34,14.163,14.163,0,0,1,4.131-2.094c.077,0,.077-.236,0-.236a8.882,8.882,0,0,0-3.985,1.481,13.365,13.365,0,0,0-3.723,3.461,15.063,15.063,0,0,0-2.241,4.553c-.032.1-.057.192-.083.287-.236-.8-.5-1.609-.785-2.4-1.737-4.821-4.438-9.859-8.589-13.033-.2-.153-.46.294-.313.46a40.155,40.155,0,0,1,4.859,6.66,46.64,46.64,0,0,1,5.051,15.491C297.981,129.11,298.1,129.864,298.192,130.611Z" transform="translate(-255.327 -84.242)" fill="#37474f"/>
        <path id="Path_112838" data-name="Path 112838" d="M306.6,145.307a11.142,11.142,0,0,1-7.184,3.914c-4.936.8-10.338-1.06-13.052-5.262a5.862,5.862,0,0,1-.409-5.747,4.325,4.325,0,0,1,4.31-2.484c1.839.268,3.4,1.277,5.255,1.335,2.382.064,4.572-1.45,6.947-1.494C307.818,135.454,309.491,141.527,306.6,145.307Z" transform="translate(-254.41 -95.03)" fill="#455a64"/>
        <path id="Path_112839" data-name="Path 112839" d="M285.862,138.271a4.325,4.325,0,0,1,4.31-2.484,14.6,14.6,0,0,1,2.554.722,1.1,1.1,0,0,1-.466.2,4.885,4.885,0,0,0-2.81,1.43,3.927,3.927,0,0,0-.134,4.3,8.563,8.563,0,0,0,3.487,2.931,14.45,14.45,0,0,0,7.2,1.137,9.578,9.578,0,0,0,6.558-3.02,5.778,5.778,0,0,0,1.328-2.516,6.82,6.82,0,0,1-1.379,4.387,11.142,11.142,0,0,1-7.184,3.914c-4.936.792-10.338-1.06-13.052-5.262a5.862,5.862,0,0,1-.415-5.747Z" transform="translate(-254.375 -95.095)" fill="#37474f"/>
        <path id="Path_112840" data-name="Path 112840" d="M299.548,139.305a2.669,2.669,0,0,1-1.13-.779,1.507,1.507,0,0,1-.364-1.169,1.324,1.324,0,0,1,.089-.268,7.35,7.35,0,0,0,1.954.364,11.308,11.308,0,0,0,3.793-.8c.1-.038.141.587.134.639a2.61,2.61,0,0,1-2.254,2.152,4.655,4.655,0,0,1-1.807,0,3.115,3.115,0,0,1-.415-.134Z" transform="translate(-258.982 -95.42)" fill="#e0e0e0"/>
      </g>
    </g>
  </g>
</svg>
